<svg viewBox="26.55000000000002 57.112000000000016 159.29999999999995 130.62599999999998" xmlns="http://www.w3.org/2000/svg" xmlns:xlink="http://www.w3.org/1999/xlink" overflow="visible" width="400px" height="200px"><rect id="Blush Background Color" fill="none" x="26.55000000000002" y="57.112000000000016" width="159.29999999999995" height="130.62599999999998"/><defs><polygon id="mastercharactertorso-path-1" points="0.248669583 0.148581831 9.00059985 0.148581831 9.00059985 3.49091992 0.248669583 3.49091992"/></defs><g id="Master/Character/Torso" stroke="none" stroke-width="1" fill="none" fill-rule="evenodd"><g id="Group" transform="translate(-13.000000, 24.000000)"><g id="Head" transform="translate(36.399999, 0.000000) scale(1.4 1.4000000000000001)"><defs><polygon id="headcaesar-path-1" points="0.1911 0.3806 9.3611 0.3806 9.3611 16 0.1911 16"/></defs><g id="Head/Caesar" stroke="none" stroke-width="1" fill="none" fill-rule="evenodd"><g id="Group-24" transform="translate(27.650000, 27.860000)"><g id="Group-13" transform="translate(7.000000, 20.887100)"><mask id="headcaesar-mask-2" fill="#fff"><use xlink:href="#headcaesar-path-1"/></mask><g id="Clip-12"/></g><path d="M16.2393,26.0014 L16.0373,33.6704 C15.9713,36.3634 14.2773,37.7634 11.6273,37.6784 C9.3643,37.6054 7.2773,36.3684 7.0693,34.1144 L7.9673,22.0614 L16.2393,26.0014 Z" id="Fill-3" fill="#aadef4"/><path d="M16.1143,29.7416029 C10.7473,29.7466 7.3403,23.3666 7.3403,23.3666 L16.2753,25.2166 L16.1143,29.7416029 Z" id="Fill-6" fill-opacity=".18" fill="#17070d"/><path d="M13.8943,26.2292415 L13.8943,26.2292415 C18.3723,26.2432 22.0703,22.7162 22.2043,19.0592 L22.4683,10.4302 C22.6353,5.8462 19.7133,1.9572 15.1383,1.6382 C10.4543,1.3122 4.9973,4.7892 4.6703,9.4722 L4.5343,16.4152 C4.4283,21.7852 8.5363,25.8562 13.8943,26.2292415" id="Fill-16" fill="#aadef4"/><path d="M0.3538,15.5788 C0.2198,17.4988 1.6678,19.1638 3.5888,19.2968 C5.5088,19.4308 7.1738,17.9818 7.3068,16.0618 C7.4408,14.1418 5.9928,12.4768 4.0718,12.3438 C2.1518,12.2098 0.4868,13.6578 0.3538,15.5788" id="Fill-18" fill="#aadef4"/><path d="M4.9734,16.9382 C4.9734,16.9382 5.1484,14.4172 2.7114,14.6472" id="Fill-20" fill-opacity=".18" fill="#17070d"/><path d="M6.15909846,6.88526421 C6.41386221,8.38242842 6.74719554,9.5115818 7.15909846,10.2727243 C6.47696512,11.5883985 5.9898801,13.1924427 5.6978434,15.0848568 C5.41330468,15.4239481 5.17875182,15.4919454 4.99418481,15.2888487 C4.76624781,15.0374914 4.64200747,14.7056998 4.53341946,14.3819515 C4.24189488,13.5102444 4.24647957,13.2304777 4.00287843,12.532958 C2.87049846,9.29053723 2.86970464,4.65549007 6.80554914,1.59593913 C10.0195217,-0.902460567 19.2412835,-0.510500071 22.2606571,5.34274043 C22.6946012,6.18396774 22.386854,7.71740447 22.2606571,7.43387342 C17.0499695,7.96387709 11.6827833,7.78100736 6.15909846,6.88526421 Z" id="Fill-17" fill="#37111f"/></g></g></g><g id="Expression" transform="translate(79.799999, 50.399999) scale(1.4000000000000001 1.4)"><defs><polygon id="expressionblushing-path-1" points="0.177621134 0.820415608 6.429 0.820415608 6.429 3.2078 0.177621134 3.2078"/></defs><g id="Expression/Blushing" stroke="none" stroke-width="1" fill="none" fill-rule="evenodd"><g id="Group-34" transform="translate(4.000000, 2.800000)"><path d="M8.5051,6.2644 C8.5761,6.4104 8.6521,6.5534 8.7221,6.7004 C8.7441,6.7454 8.7651,6.7924 8.7861,6.8394 C8.7921,6.8524 8.8311,6.9444 8.8001,6.8714 C8.8091,6.8924 8.8171,6.9124 8.8261,6.9334 C8.8631,7.0284 8.8981,7.1234 8.9221,7.2224 C8.9281,7.2434 8.9331,7.2654 8.9381,7.2864 C8.9401,7.2964 8.9531,7.3744 8.9441,7.3194 C8.9371,7.2644 8.9451,7.3354 8.9451,7.3454 C8.9461,7.3634 8.9431,7.3814 8.9451,7.3994 C8.9471,7.4154 8.9661,7.3224 8.9461,7.3824 C8.9261,7.4454 8.9661,7.3474 8.9571,7.3664 C8.9261,7.4194 9.0261,7.3004 8.9611,7.3624 C8.9371,7.3844 8.9151,7.4084 8.8911,7.4294 C8.8761,7.4424 8.8771,7.4414 8.8961,7.4264 C8.8811,7.4374 8.8661,7.4484 8.8511,7.4574 C8.8241,7.4754 8.7961,7.4924 8.7671,7.5064 C8.7581,7.5114 8.6741,7.5514 8.7231,7.5304 C8.6931,7.5424 8.6621,7.5544 8.6301,7.5644 C8.5001,7.6094 8.3651,7.6374 8.2311,7.6614 C8.0811,7.6904 7.9821,7.8794 8.0271,8.0204 C8.0791,8.1804 8.2251,8.2524 8.3851,8.2234 C8.7111,8.1624 9.0341,8.0674 9.2921,7.8494 C9.3941,7.7624 9.4801,7.6584 9.5101,7.5254 C9.5381,7.4024 9.5261,7.2824 9.5041,7.1594 C9.4281,6.7384 9.1921,6.3514 9.0071,5.9714 C8.9401,5.8334 8.7341,5.7854 8.6091,5.8674 C8.4681,5.9574 8.4331,6.1184 8.5051,6.2644" id="Fill-1" fill-opacity=".18" fill="#17070d"/><path d="M5.925,3.9206 C5.925,3.9206 6.181,5.0506 5.345,4.7746 C4.508,4.4986 1.599,3.6156 1.599,3.6156 C1.599,3.6156 3.08,1.2376 5.925,3.9206" id="Fill-3" fill="#e4f5fc"/><path d="M6.2312,3.6042 C6.2192,3.5742 6.2102,3.5422 6.1962,3.5112 C5.4212,1.8262 3.1132,1.7642 1.6992,2.5962 C1.5882,2.6622 1.4602,2.7302 1.3352,2.6972 C1.2482,2.6732 1.1802,2.6052 1.1172,2.5392 C0.9042,2.3142 0.6232,1.8442 0.2552,1.9522 C0.0642,2.0082 0.0362,2.0812 0.0042,2.2192 C-0.0498,2.4532 0.4512,2.7492 0.5862,2.8742 C0.8612,3.1272 1.1252,3.3772 1.4492,3.5802 C1.4942,3.6072 1.5412,3.6342 1.5922,3.6422 C1.6792,3.6542 1.7622,3.6092 1.8322,3.5572 C2.2192,3.2712 2.4442,2.9342 2.9282,2.7652 C3.1812,2.6762 3.5382,2.6162 3.7862,2.7472 C3.6992,3.1892 3.2902,3.6872 3.0682,4.0882 L5.6012,4.8732 C5.6012,4.8732 6.5822,4.3992 6.2312,3.6042" id="Fill-5" fill="#37111f"/><path d="M13.6477,5.6491 L9.5807,5.2491 C9.5807,5.2491 11.1467,3.1611 12.7217,3.7871 C14.2967,4.4121 13.6477,5.6491 13.6477,5.6491" id="Fill-7" fill="#e4f5fc"/><g id="Group-11" transform="translate(9.000000, 2.441500)"><mask id="expressionblushing-mask-2" fill="#fff"><use xlink:href="#expressionblushing-path-1"/></mask><g id="Clip-10"/><path d="M6.2512,1.4068 C6.0822,1.3168 5.9232,1.3758 5.7822,1.4828 C5.5482,1.6608 5.2512,2.0078 4.9742,1.7938 C4.7182,1.5948 4.5822,1.3328 4.2692,1.1718 C3.7152,0.8858 3.0432,0.7838 2.4252,0.8318 C1.5522,0.8978 0.6222,1.2998 0.2402,2.1368 C0.1662,2.3008 0.1482,2.4998 0.2392,2.6548 C0.3302,2.8088 0.5482,2.8898 0.7002,2.7958 C0.7672,2.7548 0.8132,2.6878 0.8562,2.6228 C1.3022,1.9658 2.2732,1.1658 3.1302,1.5378 C3.0012,2.0238 2.5852,2.5298 2.3502,2.9808 L4.6472,3.2078 C4.6472,3.2078 5.0462,2.9508 5.0822,2.5408 C5.1312,2.5138 5.1802,2.4908 5.2312,2.4798 C5.4752,2.1868 5.8902,2.1988 6.1622,1.9568 C6.2512,1.8698 6.3402,1.7828 6.4292,1.6948 C6.4262,1.5638 6.4142,1.4938 6.2512,1.4068" id="Fill-9" fill="#37111f" mask="url(#expressionblushing-mask-2)"/></g><path d="M5.5412,8.531 C5.6972,8.634 5.8812,8.855 5.9822,8.935 C6.4172,9.279 6.9092,9.562 7.4492,9.705 C7.8502,9.811 8.2702,9.836 8.6812,9.782 C8.8812,9.756 9.0802,9.711 9.2722,9.646 C9.4182,9.598 9.6082,9.508 9.7622,9.504 C9.8362,9.502 9.9142,9.528 9.9632,9.584 C10.0192,9.646 10.0662,9.719 10.1002,9.795 C10.1052,9.95 10.0302,10.073 9.9412,10.191 C9.7182,10.299 9.4552,10.309 9.2112,10.342 C8.9382,10.376 8.6652,10.404 8.3902,10.424 C8.2082,10.437 8.0252,10.447 7.8432,10.438 C7.3302,10.412 6.7822,10.245 6.3212,10.018 C6.1092,9.915 5.9112,9.756 5.7212,9.615 C5.6222,9.541 5.5242,9.465 5.4292,9.385 C5.3592,9.327 5.1832,9.219 5.1522,9.135 C5.1252,9.065 5.1002,8.995 5.0732,8.926 C5.0622,8.895 5.1752,8.693 5.1942,8.658 C5.2352,8.584 5.2972,8.486 5.3922,8.477 C5.4352,8.472 5.4862,8.495 5.5412,8.531" id="Fill-12" fill="#37111f"/><path d="M4.7097,1.362 C5.4537,1.262 5.4457,0.162 4.7027,0.05 C4.0567,-0.046 3.2327,-0.045 2.7467,0.435 C1.8557,1.313 3.8897,1.453 4.6867,1.365 C4.6937,1.364 4.7017,1.364 4.7097,1.362" id="Fill-14" fill="#37111f"/><path d="M12.2361,2.3083 C11.6541,2.0713 11.8931,1.1803 12.5181,1.2463 C13.0631,1.3043 13.7301,1.4793 14.0241,1.9703 C14.5601,2.8703 12.8821,2.5543 12.2551,2.3163 C12.2491,2.3133 12.2421,2.3113 12.2361,2.3083" id="Fill-16" fill="#37111f"/><path d="M4.2873,7.2898 C4.0273,7.6538 3.6183,7.9068 3.1803,8.0118 C2.6743,8.1318 2.1373,8.0668 1.6483,7.8918 C1.3283,7.7758 1.0183,7.6078 0.7953,7.3518 C0.4093,6.9098 0.3833,6.0958 0.5123,5.5468 C0.5893,5.2178 0.7803,4.9028 1.0743,4.7358 C1.5063,4.4908 1.9763,4.4728 2.4503,4.5598 C2.8693,4.6378 3.2933,4.7268 3.6673,4.9308 C4.4123,5.3388 4.8103,6.3358 4.3963,7.1138 C4.3643,7.1758 4.3273,7.2338 4.2873,7.2898" id="Fill-18" fill-opacity=".5" fill="#f5538e"/><path d="M1.1916,6.6374 C1.1406,6.6374 1.0886,6.6214 1.0446,6.5894 C0.9326,6.5074 0.9086,6.3514 0.9896,6.2404 L1.6466,5.3404 C1.7286,5.2294 1.8856,5.2054 1.9956,5.2854 C2.1076,5.3674 2.1316,5.5244 2.0506,5.6354 L1.3936,6.5344 C1.3446,6.6024 1.2686,6.6374 1.1916,6.6374" id="Fill-20" fill="#fcd3e2"/><path d="M3.095,7.3884 L3.081,7.3884 C2.943,7.3804 2.838,7.2624 2.845,7.1244 L2.908,6.0124 C2.915,5.8744 3.027,5.7884 3.171,5.7764 C3.309,5.7844 3.414,5.9024 3.407,6.0394 L3.345,7.1524 C3.337,7.2854 3.227,7.3884 3.095,7.3884" id="Fill-22" fill="#fcd3e2"/><path d="M1.9714,7.1071 C1.9324,7.1071 1.8934,7.0981 1.8574,7.0801 C1.7344,7.0161 1.6854,6.8661 1.7494,6.7431 L2.3294,5.6131 C2.3914,5.4901 2.5434,5.4421 2.6654,5.5041 C2.7884,5.5681 2.8374,5.7181 2.7734,5.8411 L2.1934,6.9711 C2.1494,7.0571 2.0614,7.1071 1.9714,7.1071" id="Fill-24" fill="#fcd3e2"/><path d="M10.99,8.4167 C11.208,8.7227 11.551,8.9347 11.918,9.0207 C12.341,9.1217 12.791,9.0677 13.201,8.9207 C13.469,8.8237 13.729,8.6847 13.916,8.4697 C14.239,8.0987 14.261,7.4167 14.153,6.9567 C14.088,6.6807 13.928,6.4177 13.682,6.2777 C13.32,6.0717 12.926,6.0567 12.529,6.1297 C12.178,6.1947 11.823,6.2697 11.51,6.4397 C10.885,6.7817 10.552,7.6167 10.899,8.2697 C10.926,8.3207 10.956,8.3697 10.99,8.4167" id="Fill-26" fill-opacity=".5" fill="#f5538e"/><path d="M13.5837,7.9108 C13.5067,7.9108 13.4307,7.8758 13.3817,7.8078 L12.8317,7.0548 C12.7497,6.9428 12.7737,6.7868 12.8857,6.7048 C12.9957,6.6248 13.1527,6.6458 13.2347,6.7598 L13.7857,7.5138 C13.8667,7.6248 13.8427,7.7808 13.7307,7.8628 C13.6867,7.8948 13.6347,7.9108 13.5837,7.9108" id="Fill-28" fill="#fcd3e2"/><path d="M11.989,8.5398 C11.857,8.5398 11.747,8.4368 11.739,8.3038 L11.687,7.3718 C11.679,7.2338 11.785,7.1158 11.923,7.1078 C12.079,7.1218 12.179,7.2068 12.186,7.3448 L12.239,8.2758 C12.246,8.4138 12.141,8.5318 12.003,8.5398 L11.989,8.5398 Z" id="Fill-30" fill="#fcd3e2"/><path d="M12.9299,8.3044 C12.8399,8.3044 12.7519,8.2544 12.7079,8.1684 L12.2219,7.2224 C12.1589,7.0994 12.2069,6.9494 12.3299,6.8854 C12.4539,6.8244 12.6039,6.8714 12.6659,6.9934 L13.1519,7.9404 C13.2159,8.0634 13.1669,8.2134 13.0439,8.2774 C13.0079,8.2954 12.9689,8.3044 12.9299,8.3044" id="Fill-32" fill="#fcd3e2"/></g></g></g><g id="Upper" transform="translate(0.000000, 1.400000) scale(1.4 1.4)"><g id="Upper/Holding Laptop 1" stroke="none" stroke-width="1" fill="none" fill-rule="evenodd"><g id="Upper" transform="translate(32.000000, 53.000000)"><polygon id="Path" fill="#c53c6e" points="16.5744 53.5731088 16.5744 58.8245 26.8446 56.9706 27.5744 50.0375043"/><path d="M67.5866,21.824 C67.5866,21.824 74.0996,23.261 78.6026,27.586 L70.1966,25.585 L67.5866,21.824 Z" id="Fill-191" fill="#75caed"/><path d="M47.7673,33.0242 C47.0303,31.4682 45.7133,29.5912 46.2753,27.8932 C46.7503,26.4572 48.1693,25.2842 49.4483,24.5862 C50.6033,23.9542 51.9013,23.5392 53.2183,23.5622 C56.4143,23.6212 56.8133,25.7092 57.9963,28.1402 C58.4823,29.1402 58.9863,30.0932 59.5203,30.9272 C60.0513,31.7572 60.6023,32.4842 61.0933,32.9692 C61.3353,33.2122 61.5593,33.3882 61.7233,33.5092 C61.8893,33.6272 61.9933,33.6752 62.0383,33.7002 C62.0603,33.7112 62.0713,33.7182 62.1063,33.7412 L62.0583,33.7442 L61.9623,33.7502 C61.6973,33.7742 61.5103,33.8092 61.3383,33.8522 C61.2633,33.8712 61.1913,33.8912 61.1253,33.9132 C61.0713,33.9292 61.0073,33.9542 60.9633,33.9692 C60.7763,34.0432 60.6893,34.0942 60.6423,34.1242 C60.5963,34.1532 60.5983,34.1582 60.6163,34.1492 C60.6363,34.1392 60.6743,34.1182 60.7263,34.0812 C60.9373,33.9352 61.2853,33.6382 61.6403,33.3052 C61.9983,32.9662 63.3763,34.5772 63.7573,34.1652 C64.5293,33.3442 65.3053,32.4292 66.0873,31.4972 C69.2073,27.7392 74.4983,17.6502 74.4983,17.6502 L81.2053,21.6162 C81.0643,21.9472 80.9343,22.2442 80.7963,22.5532 C80.6593,22.8602 80.5243,23.1672 80.3823,23.4682 C80.1023,24.0752 79.8133,24.6742 79.5183,25.2732 C78.9293,26.4682 78.3123,27.6492 77.6723,28.8232 C76.3883,31.1692 75.0113,33.4742 73.4663,35.7592 C72.6933,36.9072 71.8693,38.0382 70.9533,39.1902 C70.4893,39.7632 69.9993,40.3392 69.4523,40.9302 C68.8983,41.5242 68.3043,42.1252 67.4903,42.7782 C67.2883,42.9412 67.0633,43.1102 66.8143,43.2832 C66.5643,43.4572 66.2923,43.6342 65.9603,43.8202 C65.6293,44.0042 65.2483,44.1972 64.7563,44.3802 C64.6373,44.4262 64.4953,44.4732 64.3633,44.5152 C64.2203,44.5592 64.0703,44.6012 63.9163,44.6402 C63.5863,44.7182 63.2403,44.7852 62.8123,44.8192 L62.6563,44.8302 L62.5443,44.8362 L62.4263,44.8402 L62.1873,44.8462 C62.0293,44.8522 61.8693,44.8462 61.7093,44.8442 C61.3903,44.8362 61.0703,44.8142 60.7523,44.7782 C60.1163,44.7072 59.4883,44.5812 58.8893,44.4102 C57.6873,44.0672 56.6103,43.5492 55.6833,42.9692 C54.7533,42.3882 53.9683,41.7392 53.2743,41.0832 C51.8973,39.7612 50.8703,38.4052 49.9963,37.0552 C49.1243,35.7052 48.4013,34.3652 47.7673,33.0242" id="Fill-193" fill="#3499c2"/><path d="M74.5109,22.7449 C75.4949,24.0709 77.1659,24.6899 78.7949,24.4219 C79.5709,24.2939 80.4699,24.0459 81.3809,23.5829 C82.0119,23.2619 82.7919,22.6889 83.3419,22.7499 C84.7079,22.8979 85.2059,21.9549 85.5529,21.8679 C85.8759,22.0239 86.3319,22.1609 86.8909,22.0989 C87.6019,22.0229 88.1919,21.7639 88.5369,21.5759 L88.5389,21.5759 C89.8979,21.5589 91.0839,21.6109 91.4669,21.3439 C92.2329,20.8109 92.9779,15.5839 91.6729,15.3679 C89.9449,15.0829 90.8229,18.9369 89.2449,19.6669 C89.2449,19.6669 90.4319,14.7939 88.4869,14.4339 C87.1589,14.1889 86.9469,19.0479 85.5349,19.9279 C85.5349,19.9279 86.8729,15.4139 85.4379,14.6899 C84.0029,13.9659 84.0069,19.4079 82.5419,19.5489 C82.2429,19.5759 83.7299,15.6939 82.0099,15.4839 C80.2899,15.2749 81.2509,19.9139 76.1659,19.8089 C74.1059,19.7669 73.2699,21.0709 74.5109,22.7449" id="Fill-195" fill="#3499c2"/><path d="M57.6921,20.3719 L94.8881,20.3719 C95.8401,20.3719 96.6121,19.6009 96.6121,18.6479 C96.6121,17.6959 95.8401,16.9239 94.8881,16.9239 L57.6921,16.9239 C56.7401,16.9239 55.9681,17.6959 55.9681,18.6479 C55.9681,19.6009 56.7401,20.3719 57.6921,20.3719" id="Fill-197" fill="#d54177"/><path d="M67.0432,20.3719 L95.2122,20.3719 C95.8782,20.3719 96.4832,19.9839 96.7602,19.3789 L104.4612,2.5609 C104.9782,1.4349 104.1542,0.1509 102.9142,0.1509 L74.7442,0.1509 C74.0782,0.1509 73.4742,0.5389 73.1962,1.1439 L65.4952,17.9609 C64.9792,19.0889 65.8032,20.3719 67.0432,20.3719" id="Fill-199" fill="#6c213c"/><path d="M86.8518,7.2332 C87.4208,8.4042 88.1648,9.3862 88.9638,10.3282 C89.1318,10.5262 89.1678,10.6512 88.9168,10.8232 C88.0428,11.4242 87.3498,12.2092 86.7758,13.0932 C86.6028,13.3592 86.4898,13.3482 86.3248,13.1202 C85.6148,12.1312 84.8538,11.1902 83.9248,10.3932 C83.6138,10.1262 83.8718,9.9552 84.0858,9.8142 C85.1308,9.1292 85.9428,8.1962 86.8518,7.2332" id="Fill-201" fill="#f780ab"/><path d="M37.7510182,4.48266677 C45.1324401,5.43903457 48.4889133,11.1925256 51.1271,14.5025 C53.8201,17.8835 64.6411,32.1675 64.6411,32.1675 C64.6411,32.1675 66.0411,28.5755 68.2581,23.0305 L77.6571,27.4605 C76.9821,31.7205 76.2391,36.4235 75.8981,38.6575 C75.1941,43.2665 73.3191,52.7255 65.2681,52.7255 C63.1891,52.7255 48.1331,37.4275 48.1331,37.4275 L48.1331,56.8246 L44.0926,56.8246 L41.5371,24.2335 C38.9089383,11.0528034 37.646911,4.46919229 37.7510182,4.48266677 Z" id="Fill-203" fill="#c53c6e"/><path d="M25.5126,4.4286 L26.8446,56.9706 L44.0926,56.8246 C44.0926,56.8246 45.8856,28.6936 44.2076,21.3316 C42.3606,13.2276 38.9426,4.6876 38.9426,4.6876 L37.7385405,4.4285 C37.3595405,6.6925 32.2886,9.2276 28.4196,3.5496 L25.5126,4.4286 Z" id="Fill-205" fill="#faafca"/><path d="M27.5744,41.8992 L45.3614,41.8992 C45.3654,42.2762 45.3654,42.6372 45.3614,42.9802 L27.6544,42.9802 L27.5744,41.8992 Z" id="Fill-207" fill="#e4f5fc"/><path d="M27.7937,3.7391 C27.7937,3.7391 19.6637,5.9161 16.4857,8.6211 C13.3077,11.3251 6.2177,27.3011 3.6387,34.0441 C-0.0453,43.6781 -2.0403,58.6551 11.0767,56.3561 C24.1937,54.0571 26.2857,53.3821 26.2857,53.3821 L26.2857,46.8231 L31.1577,44.7261 L31.8347,24.3071 L27.7937,3.7391 Z" id="Fill-209" fill="#c53c6e"/><path d="M28.7072,39.7234 C28.7072,39.7234 30.8212,46.0484 29.4222,52.1334 L26.8212,43.8944 L28.7072,39.7234 Z" id="Fill-211" fill="#75caed"/><path d="M39.7849,42.1287 C38.9979,39.5607 36.2789,38.1147 33.7099,38.9017 L33.5709,38.9447 L30.3679,39.9267 C29.2889,40.2557 28.2099,40.5767 27.1309,40.8867 C26.5299,41.0647 25.9309,41.2247 25.3309,41.3927 C25.0199,45.1767 24.9309,49.0127 25.5079,52.7507 C26.0769,52.5557 26.6559,52.3687 27.2159,52.1667 C28.3549,51.7467 29.4819,51.3097 30.5969,50.8637 C31.7109,50.4127 32.8149,49.9497 33.9129,49.4707 L35.5539,48.7347 L37.2089,47.9537 C39.3649,46.9397 40.5039,44.4707 39.7849,42.1287" id="Fill-213" fill="#aadef4"/><path d="M34.111,41.2225 C34.111,41.2225 33.954,39.2125 35.343,38.1955 C36.733,37.1775 40.875,34.5325 41.776,33.7115 C42.676,32.8915 43.551,34.4725 42.451,35.9525 C41.351,37.4335 40.544,38.3635 40.544,38.3635 C40.544,38.3635 44.007,35.9825 45.667,35.0335 C47.326,34.0835 49.429,32.4515 50.066,32.9095 C50.702,33.3665 49.519,35.2485 45.009,38.0005 C45.009,38.0005 50.511,35.7535 51.385,35.6635 C52.333,35.5655 52.657,36.4195 50.319,37.8445 C47.98,39.2695 45.555,40.4555 45.555,40.4555 C45.555,40.4555 46.63,39.8825 47.44,40.5855 C48.251,41.2895 46.755,42.4465 46.755,42.4465 C46.755,42.4465 48.606,43.2925 46.439,44.7125 C44.272,46.1315 37.997,47.5975 36.407,46.8565 C34.818,46.1145 34.111,41.2225 34.111,41.2225" id="Fill-215" fill="#aadef4"/><path d="M25.5124,50.7273 L23.0304,50.9983 C22.7274,47.1963 23.2084,43.1973 23.4544,41.5113 C23.5274,41.0173 23.9054,40.6263 24.3964,40.5343 L28.7074,39.7233 C28.4784,45.2753 29.1004,50.0893 29.4224,52.1333 C29.5144,52.7223 29.1334,53.2803 28.5514,53.4063 L24.6434,54.2513 C24.0504,54.3793 23.4564,54.0013 23.3434,53.4063 C23.2414,52.8713 23.1614,52.3203 23.1004,51.7613 L25.5124,50.7273 Z" id="Fill-217" fill="#f886af"/><path d="M75.3869,30.2176 L74.3449,32.4876 C70.9269,30.7926 67.7419,28.3256 66.4229,27.2496 C66.0359,26.9336 65.8949,26.4076 66.0679,25.9396 L67.5869,21.8236 C72.2319,24.8726 76.6829,26.8126 78.6019,27.5856 C79.1549,27.8086 79.4379,28.4226 79.2459,28.9866 L77.9639,32.7746 C77.7689,33.3486 77.1399,33.6636 76.5709,33.4546 C76.0599,33.2686 75.5459,33.0526 75.0349,32.8186 L75.3869,30.2176 Z" id="Fill-219" fill="#f886af"/></g></g></g></g></g></svg>