<svg viewBox="40.71428571428572 36.37499999999997 203.57142857142864 218.25000000000003" xmlns="http://www.w3.org/2000/svg" xmlns:xlink="http://www.w3.org/1999/xlink" overflow="visible" width="203.57142857142864px" height="218.25000000000003px"><defs><path d="M12.643913,0.52096 C6.70630435,0.530826667 1.10405797,0.771573333 0.911884058,1.63392 L0.911884058,1.63392 C-0.600072464,8.42514667 -1.00985507,17.74816 13.5284783,25.0416 L13.5284783,25.0416 C16.3215942,26.44168 19.3087681,27.33856 22.3524638,27.9463467 L22.3524638,27.9463467 C27.0202174,28.8767733 31.7680435,29.2596 36.4668841,30.0124267 L36.4668841,30.0124267 C39.5774638,30.51168 43.2315942,30.3064533 46.1518841,30.1012267 L46.1518841,30.1012267 C48.8507971,29.9127733 50.9232609,29.7233333 51.3594203,30.0893867 L51.3594203,30.0893867 C52.5350725,31.07408 50.7800725,37.1815467 50.5671739,38.6428 L50.5671739,38.6428 C50.0726087,42.0448267 49.5601449,45.4616533 49.3171014,48.8922933 L49.3171014,48.8922933 C48.9157971,54.53504 48.9836232,71.66752 48.9836232,71.66752 L48.9836232,71.66752 L57.426087,73.4454933 C57.426087,73.4454933 63.6802174,44.29344 64.2812319,30.7238133 L64.2812319,30.7238133 C64.4818841,26.2108 64.057029,22.65584 62.5676812,21.2005067 L62.5676812,21.2005067 C61.4099275,20.0668267 59.6407971,13.8873333 38.9500725,9.2796 L38.9500725,9.2796 C36.7212319,8.78429333 26.7281884,0.800186667 26.7281884,0.800186667 L26.7281884,0.800186667 C26.7281884,0.800186667 20.0426087,0.531813333 13.4747826,0.52096 L13.4747826,0.52096" id="masterspot-illustrationswork-from-home-path-3"/><path d="M12.643913,0.52096 C6.70630435,0.530826667 1.10405797,0.771573333 0.911884058,1.63392 L0.911884058,1.63392 C-0.600072464,8.42514667 -1.00985507,17.74816 13.5284783,25.0416 L13.5284783,25.0416 C16.3215942,26.44168 19.3087681,27.33856 22.3524638,27.9463467 L22.3524638,27.9463467 C27.0202174,28.8767733 31.7680435,29.2596 36.4668841,30.0124267 L36.4668841,30.0124267 C39.5774638,30.51168 43.2315942,30.3064533 46.1518841,30.1012267 L46.1518841,30.1012267 C48.8507971,29.9127733 50.9232609,29.7233333 51.3594203,30.0893867 L51.3594203,30.0893867 C52.5350725,31.07408 50.7800725,37.1815467 50.5671739,38.6428 L50.5671739,38.6428 C50.0726087,42.0448267 49.5601449,45.4616533 49.3171014,48.8922933 L49.3171014,48.8922933 C48.9157971,54.53504 48.9836232,71.66752 48.9836232,71.66752 L48.9836232,71.66752 L57.426087,73.4454933 C57.426087,73.4454933 63.6802174,44.29344 64.2812319,30.7238133 L64.2812319,30.7238133 C64.4818841,26.2108 64.057029,22.65584 62.5676812,21.2005067 L62.5676812,21.2005067 C61.4099275,20.0668267 59.6407971,13.8873333 38.9500725,9.2796 L38.9500725,9.2796 C36.7212319,8.78429333 26.7281884,0.800186667 26.7281884,0.800186667 L26.7281884,0.800186667 C26.7281884,0.800186667 20.0426087,0.531813333 13.4747826,0.52096 L13.4747826,0.52096" id="masterspot-illustrationswork-from-home-path-5"/><path d="M12.643913,0.52096 C6.70630435,0.530826667 1.10405797,0.771573333 0.911884058,1.63392 L0.911884058,1.63392 C-0.600072464,8.42514667 -1.00985507,17.74816 13.5284783,25.0416 L13.5284783,25.0416 C16.3215942,26.44168 19.3087681,27.33856 22.3524638,27.9463467 L22.3524638,27.9463467 C27.0202174,28.8767733 31.7680435,29.2596 36.4668841,30.0124267 L36.4668841,30.0124267 C39.5774638,30.51168 43.2315942,30.3064533 46.1518841,30.1012267 L46.1518841,30.1012267 C48.8507971,29.9127733 50.9232609,29.7233333 51.3594203,30.0893867 L51.3594203,30.0893867 C52.5350725,31.07408 50.7800725,37.1815467 50.5671739,38.6428 L50.5671739,38.6428 C50.0726087,42.0448267 49.5601449,45.4616533 49.3171014,48.8922933 L49.3171014,48.8922933 C48.9157971,54.53504 48.9836232,71.66752 48.9836232,71.66752 L48.9836232,71.66752 L57.426087,73.4454933 C57.426087,73.4454933 63.6802174,44.29344 64.2812319,30.7238133 L64.2812319,30.7238133 C64.4818841,26.2108 64.057029,22.65584 62.5676812,21.2005067 L62.5676812,21.2005067 C61.4099275,20.0668267 59.6407971,13.8873333 38.9500725,9.2796 L38.9500725,9.2796 C36.7212319,8.78429333 26.7281884,0.800186667 26.7281884,0.800186667 L26.7281884,0.800186667 C26.7281884,0.800186667 20.0426087,0.531813333 13.4747826,0.52096 L13.4747826,0.52096" id="masterspot-illustrationswork-from-home-path-7"/><path d="M12.643913,0.52096 C6.70630435,0.530826667 1.10405797,0.771573333 0.911884058,1.63392 L0.911884058,1.63392 C-0.600072464,8.42514667 -1.00985507,17.74816 13.5284783,25.0416 L13.5284783,25.0416 C16.3215942,26.44168 19.3087681,27.33856 22.3524638,27.9463467 L22.3524638,27.9463467 C27.0202174,28.8767733 31.7680435,29.2596 36.4668841,30.0124267 L36.4668841,30.0124267 C39.5774638,30.51168 43.2315942,30.3064533 46.1518841,30.1012267 L46.1518841,30.1012267 C48.8507971,29.9127733 50.9232609,29.7233333 51.3594203,30.0893867 L51.3594203,30.0893867 C52.5350725,31.07408 50.7800725,37.1815467 50.5671739,38.6428 L50.5671739,38.6428 C50.0726087,42.0448267 49.5601449,45.4616533 49.3171014,48.8922933 L49.3171014,48.8922933 C48.9157971,54.53504 48.9836232,71.66752 48.9836232,71.66752 L48.9836232,71.66752 L57.426087,73.4454933 C57.426087,73.4454933 63.6802174,44.29344 64.2812319,30.7238133 L64.2812319,30.7238133 C64.4818841,26.2108 64.057029,22.65584 62.5676812,21.2005067 L62.5676812,21.2005067 C61.4099275,20.0668267 59.6407971,13.8873333 38.9500725,9.2796 L38.9500725,9.2796 C36.7212319,8.78429333 26.7281884,0.800186667 26.7281884,0.800186667 L26.7281884,0.800186667 C26.7281884,0.800186667 20.0426087,0.531813333 13.4747826,0.52096 L13.4747826,0.52096" id="masterspot-illustrationswork-from-home-path-9"/><path d="M12.643913,0.52096 C6.70630435,0.530826667 1.10405797,0.771573333 0.911884058,1.63392 L0.911884058,1.63392 C-0.600072464,8.42514667 -1.00985507,17.74816 13.5284783,25.0416 L13.5284783,25.0416 C16.3215942,26.44168 19.3087681,27.33856 22.3524638,27.9463467 L22.3524638,27.9463467 C27.0202174,28.8767733 31.7680435,29.2596 36.4668841,30.0124267 L36.4668841,30.0124267 C39.5774638,30.51168 43.2315942,30.3064533 46.1518841,30.1012267 L46.1518841,30.1012267 C48.8507971,29.9127733 50.9232609,29.7233333 51.3594203,30.0893867 L51.3594203,30.0893867 C52.5350725,31.07408 50.7800725,37.1815467 50.5671739,38.6428 L50.5671739,38.6428 C50.0726087,42.0448267 49.5601449,45.4616533 49.3171014,48.8922933 L49.3171014,48.8922933 C48.9157971,54.53504 48.9836232,71.66752 48.9836232,71.66752 L48.9836232,71.66752 L57.426087,73.4454933 C57.426087,73.4454933 63.6802174,44.29344 64.2812319,30.7238133 L64.2812319,30.7238133 C64.4818841,26.2108 64.057029,22.65584 62.5676812,21.2005067 L62.5676812,21.2005067 C61.4099275,20.0668267 59.6407971,13.8873333 38.9500725,9.2796 L38.9500725,9.2796 C36.7212319,8.78429333 26.7281884,0.800186667 26.7281884,0.800186667 L26.7281884,0.800186667 C26.7281884,0.800186667 20.0426087,0.531813333 13.4747826,0.52096 L13.4747826,0.52096" id="masterspot-illustrationswork-from-home-path-11"/><path d="M12.643913,0.52096 C6.70630435,0.530826667 1.10405797,0.771573333 0.911884058,1.63392 L0.911884058,1.63392 C-0.600072464,8.42514667 -1.00985507,17.74816 13.5284783,25.0416 L13.5284783,25.0416 C16.3215942,26.44168 19.3087681,27.33856 22.3524638,27.9463467 L22.3524638,27.9463467 C27.0202174,28.8767733 31.7680435,29.2596 36.4668841,30.0124267 L36.4668841,30.0124267 C39.5774638,30.51168 43.2315942,30.3064533 46.1518841,30.1012267 L46.1518841,30.1012267 C48.8507971,29.9127733 50.9232609,29.7233333 51.3594203,30.0893867 L51.3594203,30.0893867 C52.5350725,31.07408 50.7800725,37.1815467 50.5671739,38.6428 L50.5671739,38.6428 C50.0726087,42.0448267 49.5601449,45.4616533 49.3171014,48.8922933 L49.3171014,48.8922933 C48.9157971,54.53504 48.9836232,71.66752 48.9836232,71.66752 L48.9836232,71.66752 L57.426087,73.4454933 C57.426087,73.4454933 63.6802174,44.29344 64.2812319,30.7238133 L64.2812319,30.7238133 C64.4818841,26.2108 64.057029,22.65584 62.5676812,21.2005067 L62.5676812,21.2005067 C61.4099275,20.0668267 59.6407971,13.8873333 38.9500725,9.2796 L38.9500725,9.2796 C36.7212319,8.78429333 26.7281884,0.800186667 26.7281884,0.800186667 L26.7281884,0.800186667 C26.7281884,0.800186667 20.0426087,0.531813333 13.4747826,0.52096 L13.4747826,0.52096" id="masterspot-illustrationswork-from-home-path-13"/><path d="M12.643913,0.52096 C6.70630435,0.530826667 1.10405797,0.771573333 0.911884058,1.63392 L0.911884058,1.63392 C-0.600072464,8.42514667 -1.00985507,17.74816 13.5284783,25.0416 L13.5284783,25.0416 C16.3215942,26.44168 19.3087681,27.33856 22.3524638,27.9463467 L22.3524638,27.9463467 C27.0202174,28.8767733 31.7680435,29.2596 36.4668841,30.0124267 L36.4668841,30.0124267 C39.5774638,30.51168 43.2315942,30.3064533 46.1518841,30.1012267 L46.1518841,30.1012267 C48.8507971,29.9127733 50.9232609,29.7233333 51.3594203,30.0893867 L51.3594203,30.0893867 C52.5350725,31.07408 50.7800725,37.1815467 50.5671739,38.6428 L50.5671739,38.6428 C50.0726087,42.0448267 49.5601449,45.4616533 49.3171014,48.8922933 L49.3171014,48.8922933 C48.9157971,54.53504 48.9836232,71.66752 48.9836232,71.66752 L48.9836232,71.66752 L57.426087,73.4454933 C57.426087,73.4454933 63.6802174,44.29344 64.2812319,30.7238133 L64.2812319,30.7238133 C64.4818841,26.2108 64.057029,22.65584 62.5676812,21.2005067 L62.5676812,21.2005067 C61.4099275,20.0668267 59.6407971,13.8873333 38.9500725,9.2796 L38.9500725,9.2796 C36.7212319,8.78429333 26.7281884,0.800186667 26.7281884,0.800186667 L26.7281884,0.800186667 C26.7281884,0.800186667 20.0426087,0.531813333 13.4747826,0.52096 L13.4747826,0.52096" id="masterspot-illustrationswork-from-home-path-15"/><path d="M12.643913,0.52096 C6.70630435,0.530826667 1.10405797,0.771573333 0.911884058,1.63392 L0.911884058,1.63392 C-0.600072464,8.42514667 -1.00985507,17.74816 13.5284783,25.0416 L13.5284783,25.0416 C16.3215942,26.44168 19.3087681,27.33856 22.3524638,27.9463467 L22.3524638,27.9463467 C27.0202174,28.8767733 31.7680435,29.2596 36.4668841,30.0124267 L36.4668841,30.0124267 C39.5774638,30.51168 43.2315942,30.3064533 46.1518841,30.1012267 L46.1518841,30.1012267 C48.8507971,29.9127733 50.9232609,29.7233333 51.3594203,30.0893867 L51.3594203,30.0893867 C52.5350725,31.07408 50.7800725,37.1815467 50.5671739,38.6428 L50.5671739,38.6428 C50.0726087,42.0448267 49.5601449,45.4616533 49.3171014,48.8922933 L49.3171014,48.8922933 C48.9157971,54.53504 48.9836232,71.66752 48.9836232,71.66752 L48.9836232,71.66752 L57.426087,73.4454933 C57.426087,73.4454933 63.6802174,44.29344 64.2812319,30.7238133 L64.2812319,30.7238133 C64.4818841,26.2108 64.057029,22.65584 62.5676812,21.2005067 L62.5676812,21.2005067 C61.4099275,20.0668267 59.6407971,13.8873333 38.9500725,9.2796 L38.9500725,9.2796 C36.7212319,8.78429333 26.7281884,0.800186667 26.7281884,0.800186667 L26.7281884,0.800186667 C26.7281884,0.800186667 20.0426087,0.531813333 13.4747826,0.52096 L13.4747826,0.52096" id="masterspot-illustrationswork-from-home-path-17"/><path d="M12.643913,0.52096 C6.70630435,0.530826667 1.10405797,0.771573333 0.911884058,1.63392 L0.911884058,1.63392 C-0.600072464,8.42514667 -1.00985507,17.74816 13.5284783,25.0416 L13.5284783,25.0416 C16.3215942,26.44168 19.3087681,27.33856 22.3524638,27.9463467 L22.3524638,27.9463467 C27.0202174,28.8767733 31.7680435,29.2596 36.4668841,30.0124267 L36.4668841,30.0124267 C39.5774638,30.51168 43.2315942,30.3064533 46.1518841,30.1012267 L46.1518841,30.1012267 C48.8507971,29.9127733 50.9232609,29.7233333 51.3594203,30.0893867 L51.3594203,30.0893867 C52.5350725,31.07408 50.7800725,37.1815467 50.5671739,38.6428 L50.5671739,38.6428 C50.0726087,42.0448267 49.5601449,45.4616533 49.3171014,48.8922933 L49.3171014,48.8922933 C48.9157971,54.53504 48.9836232,71.66752 48.9836232,71.66752 L48.9836232,71.66752 L57.426087,73.4454933 C57.426087,73.4454933 63.6802174,44.29344 64.2812319,30.7238133 L64.2812319,30.7238133 C64.4818841,26.2108 64.057029,22.65584 62.5676812,21.2005067 L62.5676812,21.2005067 C61.4099275,20.0668267 59.6407971,13.8873333 38.9500725,9.2796 L38.9500725,9.2796 C36.7212319,8.78429333 26.7281884,0.800186667 26.7281884,0.800186667 L26.7281884,0.800186667 C26.7281884,0.800186667 20.0426087,0.531813333 13.4747826,0.52096 L13.4747826,0.52096" id="masterspot-illustrationswork-from-home-path-19"/><path d="M12.643913,0.52096 C6.70630435,0.530826667 1.10405797,0.771573333 0.911884058,1.63392 L0.911884058,1.63392 C-0.600072464,8.42514667 -1.00985507,17.74816 13.5284783,25.0416 L13.5284783,25.0416 C16.3215942,26.44168 19.3087681,27.33856 22.3524638,27.9463467 L22.3524638,27.9463467 C27.0202174,28.8767733 31.7680435,29.2596 36.4668841,30.0124267 L36.4668841,30.0124267 C39.5774638,30.51168 43.2315942,30.3064533 46.1518841,30.1012267 L46.1518841,30.1012267 C48.8507971,29.9127733 50.9232609,29.7233333 51.3594203,30.0893867 L51.3594203,30.0893867 C52.5350725,31.07408 50.7800725,37.1815467 50.5671739,38.6428 L50.5671739,38.6428 C50.0726087,42.0448267 49.5601449,45.4616533 49.3171014,48.8922933 L49.3171014,48.8922933 C48.9157971,54.53504 48.9836232,71.66752 48.9836232,71.66752 L48.9836232,71.66752 L57.426087,73.4454933 C57.426087,73.4454933 63.6802174,44.29344 64.2812319,30.7238133 L64.2812319,30.7238133 C64.4818841,26.2108 64.057029,22.65584 62.5676812,21.2005067 L62.5676812,21.2005067 C61.4099275,20.0668267 59.6407971,13.8873333 38.9500725,9.2796 L38.9500725,9.2796 C36.7212319,8.78429333 26.7281884,0.800186667 26.7281884,0.800186667 L26.7281884,0.800186667 C26.7281884,0.800186667 20.0426087,0.531813333 13.4747826,0.52096 L13.4747826,0.52096" id="masterspot-illustrationswork-from-home-path-21"/><path d="M12.643913,0.52096 C6.70630435,0.530826667 1.10405797,0.771573333 0.911884058,1.63392 L0.911884058,1.63392 C-0.600072464,8.42514667 -1.00985507,17.74816 13.5284783,25.0416 L13.5284783,25.0416 C16.3215942,26.44168 19.3087681,27.33856 22.3524638,27.9463467 L22.3524638,27.9463467 C27.0202174,28.8767733 31.7680435,29.2596 36.4668841,30.0124267 L36.4668841,30.0124267 C39.5774638,30.51168 43.2315942,30.3064533 46.1518841,30.1012267 L46.1518841,30.1012267 C48.8507971,29.9127733 50.9232609,29.7233333 51.3594203,30.0893867 L51.3594203,30.0893867 C52.5350725,31.07408 50.7800725,37.1815467 50.5671739,38.6428 L50.5671739,38.6428 C50.0726087,42.0448267 49.5601449,45.4616533 49.3171014,48.8922933 L49.3171014,48.8922933 C48.9157971,54.53504 48.9836232,71.66752 48.9836232,71.66752 L48.9836232,71.66752 L57.426087,73.4454933 C57.426087,73.4454933 63.6802174,44.29344 64.2812319,30.7238133 L64.2812319,30.7238133 C64.4818841,26.2108 64.057029,22.65584 62.5676812,21.2005067 L62.5676812,21.2005067 C61.4099275,20.0668267 59.6407971,13.8873333 38.9500725,9.2796 L38.9500725,9.2796 C36.7212319,8.78429333 26.7281884,0.800186667 26.7281884,0.800186667 L26.7281884,0.800186667 C26.7281884,0.800186667 20.0426087,0.531813333 13.4747826,0.52096 L13.4747826,0.52096" id="masterspot-illustrationswork-from-home-path-23"/><path d="M0.161392405,2.10372881 C0.161392405,2.10372881 0.0085443038,3.21654237 0,4.97128814 L0,4.97128814 L0,5.27505085 C0.0360759494,12.9477627 2.92025316,31.4890847 30.739557,25.9554915 L30.739557,25.9554915 C44.9810127,23.122339 51.0066456,18.7163051 51.0066456,18.7163051 L51.0066456,18.7163051 C51.0066456,18.7163051 54.7205696,31.4124068 56.7949367,36.6215932 L56.7949367,36.6215932 C58.8683544,41.8337288 66.1936709,57.787661 66.1936709,57.787661 L66.1936709,57.787661 L74.5642405,55.4185085 C74.5642405,55.4185085 67.7449367,25.8021356 62.428481,13.4383051 L62.428481,13.4383051 C60.6598101,9.32423729 58.743038,6.35935593 56.7731013,5.76067797 L56.7731013,5.76067797 C55.2417722,5.29274576 53.5338608,4.92115254 51.6531646,4.64688136 L51.6531646,4.64688136 C43.8360759,3.50261017 18.2648734,0.598677966 18.2648734,0.598677966 L18.2648734,0.598677966" id="masterspot-illustrationswork-from-home-path-29"/><path d="M0.161392405,2.10372881 C0.161392405,2.10372881 0.0085443038,3.21654237 0,4.97128814 L0,4.97128814 L0,5.27505085 C0.0360759494,12.9477627 2.92025316,31.4890847 30.739557,25.9554915 L30.739557,25.9554915 C44.9810127,23.122339 51.0066456,18.7163051 51.0066456,18.7163051 L51.0066456,18.7163051 C51.0066456,18.7163051 54.7205696,31.4124068 56.7949367,36.6215932 L56.7949367,36.6215932 C58.8683544,41.8337288 66.1936709,57.787661 66.1936709,57.787661 L66.1936709,57.787661 L74.5642405,55.4185085 C74.5642405,55.4185085 67.7449367,25.8021356 62.428481,13.4383051 L62.428481,13.4383051 C60.6598101,9.32423729 58.743038,6.35935593 56.7731013,5.76067797 L56.7731013,5.76067797 C55.2417722,5.29274576 53.5338608,4.92115254 51.6531646,4.64688136 L51.6531646,4.64688136 C43.8360759,3.50261017 18.2648734,0.598677966 18.2648734,0.598677966 L18.2648734,0.598677966" id="masterspot-illustrationswork-from-home-path-31"/><path d="M0.161392405,2.10372881 C0.161392405,2.10372881 0.0085443038,3.21654237 0,4.97128814 L0,4.97128814 L0,5.27505085 C0.0360759494,12.9477627 2.92025316,31.4890847 30.739557,25.9554915 L30.739557,25.9554915 C44.9810127,23.122339 51.0066456,18.7163051 51.0066456,18.7163051 L51.0066456,18.7163051 C51.0066456,18.7163051 54.7205696,31.4124068 56.7949367,36.6215932 L56.7949367,36.6215932 C58.8683544,41.8337288 66.1936709,57.787661 66.1936709,57.787661 L66.1936709,57.787661 L74.5642405,55.4185085 C74.5642405,55.4185085 67.7449367,25.8021356 62.428481,13.4383051 L62.428481,13.4383051 C60.6598101,9.32423729 58.743038,6.35935593 56.7731013,5.76067797 L56.7731013,5.76067797 C55.2417722,5.29274576 53.5338608,4.92115254 51.6531646,4.64688136 L51.6531646,4.64688136 C43.8360759,3.50261017 18.2648734,0.598677966 18.2648734,0.598677966 L18.2648734,0.598677966 L0.161392405,2.10372881 Z" id="masterspot-illustrationswork-from-home-path-33"/><path d="M2.7241902,2.26163208 C2.7241902,2.26163208 0.0085443038,3.21654237 0,4.97128814 L0,5.27505085 C0.0360759494,12.9477627 2.92025316,31.4890847 30.739557,25.9554915 C44.9810127,23.122339 51.0066456,18.7163051 51.0066456,18.7163051 C51.0066456,18.7163051 54.7205696,31.4124068 56.7949367,36.6215932 C58.8683544,41.8337288 66.1936709,57.787661 66.1936709,57.787661 L74.5642405,55.4185085 C74.5642405,55.4185085 67.7449367,25.8021356 62.428481,13.4383051 C60.6598101,9.32423729 58.743038,6.35935593 56.7731013,5.76067797 C55.2417722,5.29274576 53.5338608,4.92115254 51.6531646,4.64688136 C43.8360759,3.50261017 18.2648734,0.598677966 18.2648734,0.598677966 L2.7241902,2.26163208 Z" id="masterspot-illustrationswork-from-home-path-35"/><polygon id="masterspot-illustrationswork-from-home-path-1" points="0 54.7896 71.376 54.7896 71.376 -0.0004 0 -0.0004"/><polygon id="masterspot-illustrationswork-from-home-path-25" points="0.707639602 0.00697906691 25.1348488 0.00697906691 25.1348488 13.6149041 0.707639602 13.6149041"/><polygon id="masterspot-illustrationswork-from-home-path-27" points="0.213213051 0.0098630137 23.2370913 0.0098630137 23.2370913 7.69709589 0.213213051 7.69709589"/><polygon id="masterspot-illustrationswork-from-home-path-37" points="0.472318819 0.729952542 18.319 0.729952542 18.319 14.3825 0.472318819 14.3825"/></defs><g id="Master/Spot Illustrations/Work from Home" stroke="none" stroke-width="1" fill="none" fill-rule="evenodd"><g id="Backdrop" transform="translate(29.000000, 36.000000) scale(1 1)"><g id="Backdrop/Crooked" stroke="none" stroke-width="1" fill="none" fill-rule="evenodd"><path d="M109.015471,12.1884688 L21.3454696,12 C15.7117755,11.9882911 12.177156,18.0556014 14.9834908,22.9210081 L58.6545015,98.6317276 L102.326353,174.34161 C105.132688,179.207016 112.175857,179.22293 115.004057,174.368412 L159.002207,98.8469814 L203.000357,23.3247137 C205.828557,18.4701954 202.320008,12.3878089 196.685473,12.376083 L109.015471,12.1884688 Z" id="Background" fill="#fbbcd3" opacity=".2" transform="translate(109.000000, 95.000000) rotate(8.000000) translate(-109.000000, -95.000000)"/></g></g><g id="Texture" opacity=".644" transform="translate(39.000000, 50.000000) scale(1 1)"><g id="Texture/Random Stuff" stroke="none" stroke-width="1" fill="none" fill-rule="evenodd"><g id="Decoration-1" transform="translate(157.000000, 69.000000)"><path d="M4.88855377,9.18531247 C5.10943803,8.97154288 5.44385451,8.94201943 5.69613648,9.10038635 L5.78651,9.16858842 L10.6662701,13.5508729 L15.2454009,9.42056973 C15.4645195,9.22288714 15.7839864,9.19768096 16.0287935,9.34687338 L16.1167547,9.41099923 L21.1902701,13.7898729 L25.1648498,9.6929992 C25.3927508,9.45806519 25.7532226,9.42944053 26.0133345,9.61066474 L26.0960019,9.67884985 C26.330936,9.90675085 26.3595606,10.2672227 26.1783364,10.5273346 L26.1101513,10.610002 L21.7031513,15.153002 C21.4872653,15.3755502 21.1504103,15.4141383 20.8927611,15.2598981 L20.8002464,15.193002 L15.6952701,10.7878729 L11.1086002,14.9264315 C10.8862071,15.1270682 10.5610741,15.1496958 10.3154972,14.9941111 L10.2274911,14.9274128 L5.3632701,10.5578729 L1.11644733,14.6686887 C0.881246209,14.896314 0.520050627,14.9135493 0.265787013,14.7242072 L0.185312433,14.6534474 C-0.0423128871,14.4182462 -0.0595481567,14.0570507 0.129793953,13.8027871 L0.200553774,13.7223125 L4.88855377,9.18531247 Z" id="Stroke-20" fill="#3eb4e5" fill-rule="nonzero"/></g><g id="Decoration-3" transform="translate(155.000000, 124.000000)"><path d="M16.1781782,12.1013564 C16.1941782,12.4253564 16.0731782,12.5833564 15.8931782,12.7083564 C15.6381782,12.8863564 15.4021782,13.1563564 15.1191782,13.2173564 C13.8271782,13.4973564 13.4241782,14.5673564 12.9121782,15.5613564 C12.4251782,16.5103564 11.7521782,16.5973564 11.2901782,15.6443564 C10.6741782,14.3763564 9.89617817,13.4393564 8.54517817,12.8993564 C7.81117817,12.6073564 7.81817817,11.6883564 8.56717817,11.3933564 C9.92417817,10.8583564 10.7161782,9.94435635 11.3051782,8.64735635 C11.7191782,7.73435635 12.4741782,7.81135635 12.8911782,8.72535635 C13.3781782,9.79135635 13.8701782,10.7783564 15.1501782,11.1263564 C15.6161782,11.2543564 16.0711782,11.6153564 16.1781782,12.1013564" id="Fill-23" fill="#e1ffff"/></g><g id="Decoration-4" transform="translate(15.000000, 9.000000)"><path d="M15.9982836,12.4383382 C16.0168731,12.7887472 15.8826154,12.9603968 15.68536,13.0944663 C15.4044516,13.2874452 15.1441983,13.5789448 14.834373,13.6449639 C13.4122746,13.947636 12.9681916,15.1055091 12.4053422,16.182128 C11.8683115,17.2089786 11.1288617,17.302421 10.6197153,16.2715077 C9.94223056,14.9003421 9.08607982,13.8856796 7.6009836,13.3016647 C6.79233942,12.9847731 6.79956868,11.9904241 7.62370413,11.6715012 C9.11706236,11.0935803 9.98870437,10.1032941 10.6372721,8.69962684 C11.0927154,7.71238765 11.9240801,7.79668894 12.3826216,8.78392813 C12.9186195,9.93875422 13.4597811,11.006232 14.867421,11.3840643 C15.3817311,11.5221965 15.8805499,11.9112012 15.9982836,12.4383382" id="Sparkle-1" fill="#3dedea"/></g><g id="Decoration-5" transform="translate(175.000000, 85.000000)"><path d="M15.9982836,12.4383382 C16.0168731,12.7887472 15.8826154,12.9603968 15.68536,13.0944663 C15.4044516,13.2874452 15.1441983,13.5789448 14.834373,13.6449639 C13.4122746,13.947636 12.9681916,15.1055091 12.4053422,16.182128 C11.8683115,17.2089786 11.1288617,17.302421 10.6197153,16.2715077 C9.94223056,14.9003421 9.08607982,13.8856796 7.6009836,13.3016647 C6.79233942,12.9847731 6.79956868,11.9904241 7.62370413,11.6715012 C9.11706236,11.0935803 9.98870437,10.1032941 10.6372721,8.69962684 C11.0927154,7.71238765 11.9240801,7.79668894 12.3826216,8.78392813 C12.9186195,9.93875422 13.4597811,11.006232 14.867421,11.3840643 C15.3817311,11.5221965 15.8805499,11.9112012 15.9982836,12.4383382" id="Sparkle-1" fill="#3dedea"/></g><g id="Decoration-6" transform="translate(121.000000, 38.000000)"><g id="Group" transform="translate(12.000000, 12.500000) rotate(-270.000000) translate(-12.000000, -12.500000) translate(10.000000, 5.000000)" fill="#f9a4c3"><path d="M3.62780185,1.812 C3.62680093,2.811 2.81580093,3.622 1.81580093,3.62100092 C0.815800926,3.62 0.00680092607,2.809 0.0078,1.809 C0.0078,0.809 0.818800926,-1.39888101e-14 1.81880093,-1.39888101e-14 C2.81780093,-1.39888101e-14 3.62880093,0.812 3.62780185,1.812" id="Fill-39"/><path d="M3.62390185,7.2798 C3.62290093,8.2788 2.81190093,9.0898 1.81190093,9.08880092 C0.811900926,9.0878 0.00290092607,8.2768 0.0039,7.2768 C0.0039,6.2768 0.814900926,5.4678 1.81490093,5.4678 C2.81390093,5.4678 3.62490093,6.2798 3.62390185,7.2798" id="Fill-41"/><path d="M3.62000185,12.4058 C3.62000185,13.4058 2.80800093,14.2158 1.80800093,14.2148009 C0.808000926,14.2148009 -0.000999073928,13.4028 1.56541446e-13,12.4028 C0.00100092607,11.4028 0.811000926,10.5938 1.81100093,10.5938 C2.81100093,10.5938 3.62100093,11.4058 3.62000185,12.4058" id="Fill-43"/></g></g><g id="Decoration-7" transform="translate(92.000000, 66.000000)"><path d="M16.1781782,12.1013564 C16.1941782,12.4253564 16.0731782,12.5833564 15.8931782,12.7083564 C15.6381782,12.8863564 15.4021782,13.1563564 15.1191782,13.2173564 C13.8271782,13.4973564 13.4241782,14.5673564 12.9121782,15.5613564 C12.4251782,16.5103564 11.7521782,16.5973564 11.2901782,15.6443564 C10.6741782,14.3763564 9.89617817,13.4393564 8.54517817,12.8993564 C7.81117817,12.6073564 7.81817817,11.6883564 8.56717817,11.3933564 C9.92417817,10.8583564 10.7161782,9.94435635 11.3051782,8.64735635 C11.7191782,7.73435635 12.4741782,7.81135635 12.8911782,8.72535635 C13.3781782,9.79135635 13.8701782,10.7783564 15.1501782,11.1263564 C15.6161782,11.2543564 16.0711782,11.6153564 16.1781782,12.1013564" id="Fill-23" fill="#e1ffff"/></g><g id="Decoration-8" transform="translate(80.000000, 133.000000)"><path d="M15.9982836,12.4383382 C16.0168731,12.7887472 15.8826154,12.9603968 15.68536,13.0944663 C15.4044516,13.2874452 15.1441983,13.5789448 14.834373,13.6449639 C13.4122746,13.947636 12.9681916,15.1055091 12.4053422,16.182128 C11.8683115,17.2089786 11.1288617,17.302421 10.6197153,16.2715077 C9.94223056,14.9003421 9.08607982,13.8856796 7.6009836,13.3016647 C6.79233942,12.9847731 6.79956868,11.9904241 7.62370413,11.6715012 C9.11706236,11.0935803 9.98870437,10.1032941 10.6372721,8.69962684 C11.0927154,7.71238765 11.9240801,7.79668894 12.3826216,8.78392813 C12.9186195,9.93875422 13.4597811,11.006232 14.867421,11.3840643 C15.3817311,11.5221965 15.8805499,11.9112012 15.9982836,12.4383382" id="Sparkle-1" fill="#3dedea"/></g><g id="Decoration-8" transform="translate(187.000000, 9.000000)"><path d="M9.33233208,7.25569729 C9.34317597,7.46010253 9.264859,7.56023147 9.14979331,7.63843869 C8.98593012,7.75100969 8.83411569,7.92105114 8.65338423,7.95956227 C7.82382684,8.136121 7.56477841,8.81154698 7.23644959,9.43957466 C6.92318173,10.0385709 6.49183598,10.0930789 6.19483395,9.4917128 C5.79963449,8.69186624 5.30021323,8.09997978 4.4339071,7.75930439 C3.96219799,7.57445096 3.96641506,6.99441408 4.44716074,6.8083757 C5.31828638,6.47125518 5.82674421,5.89358822 6.2050754,5.07478233 C6.47075065,4.4988928 6.95571339,4.54806855 7.22319595,5.12395808 C7.53586138,5.79760663 7.85153899,6.42030199 8.67266226,6.64070416 C8.97267648,6.72128129 9.26365413,6.94820073 9.33233208,7.25569729" id="Sparkle-1" fill="#3dedea"/></g><g id="Decoration-9" transform="translate(27.000000, 78.000000)"><path d="M16.1781782,12.1013564 C16.1941782,12.4253564 16.0731782,12.5833564 15.8931782,12.7083564 C15.6381782,12.8863564 15.4021782,13.1563564 15.1191782,13.2173564 C13.8271782,13.4973564 13.4241782,14.5673564 12.9121782,15.5613564 C12.4251782,16.5103564 11.7521782,16.5973564 11.2901782,15.6443564 C10.6741782,14.3763564 9.89617817,13.4393564 8.54517817,12.8993564 C7.81117817,12.6073564 7.81817817,11.6883564 8.56717817,11.3933564 C9.92417817,10.8583564 10.7161782,9.94435635 11.3051782,8.64735635 C11.7191782,7.73435635 12.4741782,7.81135635 12.8911782,8.72535635 C13.3781782,9.79135635 13.8701782,10.7783564 15.1501782,11.1263564 C15.6161782,11.2543564 16.0711782,11.6153564 16.1781782,12.1013564" id="Fill-23" fill="#e1ffff"/></g><g id="Decoration-10" transform="translate(0.000000, 138.000000)"><path d="M14.0345279,6.22635976 L7.23052925,9.43212839 C5.79593302,10.1071497 5.60720927,12.1058291 6.87993992,13.0518609 L12.9584686,17.5644906 C14.2612881,18.5328879 16.0824089,17.6753832 16.2342941,16.0607129 L16.9602686,8.3425664 C17.1114648,6.73522076 15.4972511,5.53707437 14.0345279,6.22635976 Z M14.8614961,7.9812739 C14.9386173,7.94493177 15.0418973,8.02159117 15.0287949,8.16088083 L14.3028201,15.8790322 C14.2904423,16.0106181 14.1860861,16.0597559 14.115387,16.0072046 L8.03674116,11.4944879 C7.9364746,11.4199587 7.95386308,11.2358059 8.05689694,11.1873253 L14.8614961,7.9812739 Z" id="Triangle" fill="#3dedea" fill-rule="nonzero"/></g><g id="Decoration-2" transform="translate(6.000000, 75.000000) rotate(-270.000000) translate(-6.000000, -75.000000) translate(-1.000000, 69.000000)"><path d="M10.4065548,4.63345856 C10.5882948,4.46484392 10.863028,4.45656264 11.053809,4.60543273 L11.0996528,4.64592239 L13.3530284,6.8926207 C13.5485801,7.0875929 13.5490498,7.40417504 13.3540776,7.5997267 C13.1741033,7.78023593 12.8905086,7.79452151 12.6941369,7.64230028 L12.6469716,7.60077591 L10.734,5.6935 L8.53276844,7.73602143 C8.35685689,7.89922856 8.09284848,7.91273442 7.90235837,7.77660041 L7.85235071,7.73576292 L5.7725,5.803 L3.45053616,7.87325849 C3.26388472,8.03961986 2.98628244,8.04086258 2.79866976,7.88492847 L2.75374608,7.84267502 L0.635893107,5.59236549 C0.446638918,5.3912748 0.456234294,5.07483776 0.657324979,4.88558357 C0.842947149,4.7108874 1.12685261,4.70562517 1.31828556,4.86401257 L1.36410689,4.90701545 L3.148,6.803 L5.44711345,4.75416619 C5.62362525,4.59684222 5.88328662,4.58627067 6.07088485,4.72084285 L6.12014471,4.76114174 L8.1925,6.687 L10.4065548,4.63345856 Z" id="Stroke-35" fill="#f780ab" fill-rule="nonzero"/></g></g></g><g id="Window" transform="translate(157.000000, 38.000000) scale(1 1)"><defs><polygon id="windowcheckmark-3-path-1" points="10 11 71.3217 11 71.3217 62.276 10 62.276"/></defs><g id="Window/Checkmark 3" stroke="none" stroke-width="1" fill="none" fill-rule="evenodd"><mask id="windowcheckmark-3-mask-2" fill="#ffffff"><use xlink:href="#windowcheckmark-3-path-1" fill="#ffffff"/></mask><g id="Clip-142"/><path d="M60.52,52.651 L32.363,52.651 L23.326,62.276 L23.326,52.651 L20.802,52.651 C14.836,52.651 10,47.815 10,41.849 L10,21.801 C10,15.836 14.836,11 20.802,11 L60.52,11 C66.486,11 71.322,15.836 71.322,21.801 L71.322,41.849 C71.322,47.815 66.486,52.651 60.52,52.651" id="Fill-141" fill="#8afffd" mask="url(#windowcheckmark-3-mask-2)"/><path d="M55.9536,31.9098 C55.9536,40.3558 49.1066,47.2028 40.6616,47.2028 C32.2156,47.2028 25.3686,40.3558 25.3686,31.9098 C25.3686,23.4648 32.2156,16.6178 40.6616,16.6178 C49.1066,16.6178 55.9536,23.4648 55.9536,31.9098" id="Fill-144" fill="#e4f5fc" mask="url(#windowcheckmark-3-mask-2)"/><polygon id="Fill-146" fill="#38a4d0" mask="url(#windowcheckmark-3-mask-2)" points="40.8794 40.0465 31.3024 32.6195 34.6364 28.3185 40.0744 32.5365 47.1244 24.1245 51.2944 27.6205"/></g></g><g id="Pet" transform="translate(199.000000, 186.000000) scale(1 1)"><defs><polygon id="petpink-cat-path-1" points="0.000213314282 0.708 33.0567454 0.708 33.0567454 60.537124 0.000213314282 60.537124"/><path d="M25.689,0.753 C24.682,2.015 24.085,3.492 23.549,4.988 L23.549,4.988 C23.27,5.763 23.332,5.771 22.542,5.769 L22.542,5.769 C22.126,5.768 21.817,5.678 21.613,5.264 L21.613,5.264 C21.39,4.808 21.108,4.38 20.83,3.952 L20.83,3.952 C20.273,3.097 19.742,2.223 19.13,1.409 L19.13,1.409 C18.4,0.437 17.444,0.525 16.84,1.571 L16.84,1.571 C16.328,2.458 15.98,3.413 15.671,4.387 L15.671,4.387 C14.984,6.55 14.558,8.772 14.189,11.006 L14.189,11.006 C14.137,11.317 14.094,11.626 13.845,11.832 L13.845,11.832 C13.5,11.695 13.209,11.575 12.915,11.462 L12.915,11.462 C12.614,11.347 12.258,11.188 12.101,11.61 L12.101,11.61 C11.954,12.009 12.322,12.158 12.601,12.306 L12.601,12.306 C12.855,12.439 13.113,12.571 13.384,12.664 L13.384,12.664 C13.892,12.837 13.74,13.179 13.634,13.518 L13.634,13.518 C13.529,13.854 13.361,14.146 12.955,13.969 L12.955,13.969 C12.498,13.769 12.005,13.857 11.545,13.721 L11.545,13.721 C11.287,13.645 11.005,13.596 10.938,13.952 L10.938,13.952 C10.875,14.288 11.16,14.369 11.408,14.444 L11.408,14.444 C11.775,14.557 12.147,14.65 12.507,14.777 L12.507,14.777 C12.735,14.857 12.899,15.003 12.754,15.286 L12.754,15.286 C12.284,16.204 11.897,17.178 11.343,18.051 L11.343,18.051 L11.327,18.044 C11.318,18.057 11.31,18.068 11.301,18.08 L11.301,18.08 C11.289,18.098 11.275,18.121 11.259,18.146 L11.259,18.146 C11.264,18.149 11.27,18.15 11.275,18.151 L11.275,18.151 C11.215,18.243 11.155,18.336 11.093,18.426 L11.093,18.426 C9.77,20.751 4.104,32.155 2.517,35.673 L2.517,35.673 C4.201,37.349 6.449,38.328 8.836,38.294 L8.836,38.294 C10.031,38.278 11.212,38.02 12.323,37.588 L12.323,37.588 C13.466,37.142 14.566,36.532 15.421,35.64 L15.421,35.64 C16.187,34.842 16.712,33.844 16.902,32.749 L16.902,32.749 C17.002,32.171 17.005,31.577 16.935,30.996 L16.935,30.996 C16.861,30.368 16.666,29.807 16.348,29.262 L16.348,29.262 C16.047,28.742 15.689,28.258 15.425,27.718 L15.425,27.718 C15.154,27.166 15.038,26.587 15.008,25.974 L15.008,25.974 C14.945,24.722 15.192,23.46 14.886,22.227 L14.886,22.227 C14.636,21.218 14.088,20.31 13.309,19.621 L13.309,19.621 C12.717,19.095 12.015,18.724 11.271,18.468 L11.271,18.468 C11.338,18.484 11.405,18.5 11.472,18.517 L11.472,18.517 C11.532,18.53 11.591,18.545 11.651,18.549 L11.651,18.549 C11.748,18.558 11.844,18.546 11.939,18.534 L11.939,18.534 C12.008,18.525 12.077,18.515 12.146,18.507 L12.146,18.507 C12.854,18.852 13.5,19.321 14.017,19.92 L14.017,19.92 C14.729,20.743 15.159,21.76 15.296,22.838 L15.296,22.838 C15.464,24.159 15.102,25.517 15.409,26.827 L15.409,26.827 C15.439,26.952 15.477,27.075 15.521,27.195 L15.521,27.195 C15.542,27.311 15.592,27.428 15.67,27.553 L15.67,27.553 C15.886,28.007 16.173,28.43 16.442,28.863 L16.442,28.863 C16.584,29.153 16.715,29.449 16.828,29.756 L16.828,29.756 C17.13,30.57 17.261,31.389 17.265,32.216 L17.265,32.216 C17.222,32.732 17.121,33.241 16.956,33.71 L16.956,33.71 C16.577,34.791 15.871,35.725 14.981,36.439 L14.981,36.439 C13.982,37.243 12.765,37.802 11.54,38.165 L11.54,38.165 C10.384,38.509 9.164,38.66 7.957,38.558 L7.957,38.558 C5.781,38.374 4.056,37.339 2.404,36.004 L2.404,36.004 C0.432,39.914 -0.746,46.374 1.012,50.575 L1.012,50.575 C2.452,54.016 5.44,55.29 8.511,56.799 L8.511,56.799 C10.751,57.9 13.132,58.543 15.527,59.161 L15.527,59.161 C15.836,59.241 16.145,59.322 16.449,59.416 L16.449,59.416 C17.759,59.824 19.11,59.93 20.466,60.077 L20.466,60.077 C21.98,60.241 23.494,60.363 25.009,60.481 L25.009,60.481 C26.216,60.575 27.423,60.555 28.622,60.394 L28.622,60.394 C29.942,60.216 30.306,59.893 30.548,58.768 L30.548,58.768 C31.072,56.335 27.697,55.614 26.051,55.184 L26.051,55.184 C23.748,54.581 21.383,54.284 19.039,53.899 L19.039,53.899 C15.54,53.324 11.982,52.376 8.698,51.034 L8.698,51.034 C8.103,50.791 7.395,50.73 6.908,50.099 L6.908,50.099 C7.342,49.989 7.703,50.078 8.067,50.125 L8.067,50.125 C9.014,50.247 9.955,50.458 10.914,50.438 L10.914,50.438 C13.082,50.393 15.235,50.667 17.4,50.721 L17.4,50.721 C19.4,50.771 21.392,50.835 23.385,50.487 L23.385,50.487 C24.124,50.358 24.877,50.125 25.649,50.24 L25.649,50.24 C26.506,50.369 27.348,50.286 28.201,50.172 L28.201,50.172 C28.782,50.097 29.227,49.868 29.584,49.426 L29.584,49.426 C29.615,49.191 29.646,48.956 29.677,48.722 L29.677,48.722 C29.22,48.131 28.796,47.697 28.445,47.254 L28.445,47.254 L28.526,47.245 C28.509,47.195 28.491,47.147 28.474,47.096 L28.474,47.096 C28.445,47.126 28.417,47.155 28.39,47.184 L28.39,47.184 C27.919,46.574 27.596,45.931 27.538,44.83 L27.538,44.83 C27.136,37.099 26.482,29.346 26.753,21.624 L26.753,21.624 C26.784,20.725 27.154,20.177 28.031,19.854 L28.031,19.854 C29.306,19.383 30.316,18.587 30.577,17.132 L30.577,17.132 C30.632,16.82 30.669,16.504 30.721,16.192 L30.721,16.192 C30.774,15.87 30.93,15.693 31.296,15.693 L31.296,15.693 C31.739,15.693 32.186,15.655 32.626,15.592 L32.626,15.592 C32.84,15.56 33.078,15.444 33.055,15.168 L33.055,15.168 C33.035,14.914 32.844,14.79 32.59,14.776 L32.59,14.776 C32.18,14.754 31.769,14.723 31.36,14.715 L31.36,14.715 C31.033,14.709 30.919,14.524 30.881,14.236 L30.881,14.236 C30.841,13.934 31.028,13.867 31.264,13.8 L31.264,13.8 C31.69,13.676 32.109,13.528 32.53,13.388 L32.53,13.388 C32.759,13.31 32.946,13.163 32.921,12.91 L32.921,12.91 C32.89,12.594 32.605,12.524 32.353,12.507 L32.353,12.507 C32.171,12.494 31.98,12.567 31.798,12.621 L31.798,12.621 C31.615,12.675 31.443,12.77 31.258,12.813 L31.258,12.813 C30.883,12.9 30.657,12.818 30.657,12.348 L30.657,12.348 C30.657,11.81 30.625,11.263 30.522,10.736 L30.522,10.736 C30.142,8.81 29.641,6.919 28.959,5.072 L28.959,5.072 C28.694,4.353 28.303,3.698 28.059,2.975 L28.059,2.975 C27.783,2.156 27.373,1.409 26.763,0.784 L26.763,0.784 C26.545,0.74 26.326,0.708 26.107,0.708 L26.107,0.708 C25.968,0.708 25.828,0.721 25.689,0.753" id="petpink-cat-path-3"/></defs><g id="Pet/Pink Cat" stroke="none" stroke-width="1" fill="none" fill-rule="evenodd"><g id="Group-49" transform="translate(27.000000, 38.000000) scale(-1, 1) translate(-27.000000, -38.000000) translate(10.000000, 7.000000)"><g id="Group-26" transform="translate(0.000000, 0.292400)"><path d="M5.8866,43.3962 C5.5806,43.7212 5.5676,44.0882 5.4366,44.4072 C5.3566,44.5982 5.3836,44.7982 5.5646,44.9142 C5.7776,45.0472 6.0126,44.9752 6.1886,44.8372 C6.6096,44.5062 6.5896,43.9492 6.1616,43.5802 C6.0936,43.5202 6.0106,43.4772 5.8866,43.3962" id="Fill-1" fill="#1f5c75"/><g id="Group-5"><mask id="petpink-cat-mask-2" fill="#ffffff"><use xlink:href="#petpink-cat-path-1" fill="#ffffff"/></mask><g id="Clip-4"/><path d="M32.5902,14.7761 C32.1792,14.7541 31.7692,14.7231 31.3592,14.7151 C31.0322,14.7091 30.9192,14.5231 30.8812,14.2361 C30.8412,13.9341 31.0282,13.8671 31.2642,13.7991 C31.6902,13.6761 32.1092,13.5281 32.5292,13.3871 C32.7582,13.3101 32.9462,13.1641 32.9212,12.9101 C32.8892,12.5931 32.6052,12.5231 32.3532,12.5061 C32.1712,12.4941 31.9802,12.5671 31.7982,12.6211 C31.6152,12.6741 31.4432,12.7701 31.2582,12.8131 C30.8822,12.9001 30.6562,12.8181 30.6562,12.3481 C30.6562,11.8101 30.6252,11.2621 30.5212,10.7361 C30.1412,8.8101 29.6412,6.9201 28.9592,5.0721 C28.6942,4.3531 28.3032,3.6981 28.0592,2.9741 C27.7822,2.1561 27.3722,1.4091 26.7632,0.7841 C26.4062,0.7131 26.0492,0.6711 25.6892,0.7521 C24.6812,2.0151 24.0852,3.4921 23.5482,4.9881 C23.2702,5.7621 23.3322,5.7711 22.5422,5.7691 C22.1262,5.7681 21.8172,5.6771 21.6132,5.2641 C21.3902,4.8081 21.1082,4.3801 20.8302,3.9521 C20.2742,3.0961 19.7412,2.2231 19.1292,1.4091 C18.3992,0.4371 17.4442,0.5251 16.8402,1.5711 C16.3272,2.4581 15.9792,3.4131 15.6712,4.3861 C14.9842,6.5501 14.5582,8.7721 14.1882,11.0061 C14.1372,11.3171 14.0932,11.6271 13.8442,11.8331 C13.5002,11.6951 13.2092,11.5751 12.9152,11.4631 C12.6142,11.3471 12.2582,11.1881 12.1012,11.6101 C11.9542,12.0081 12.3212,12.1581 12.6002,12.3051 C12.8542,12.4391 13.1132,12.5711 13.3842,12.6641 C13.8922,12.8371 13.7402,13.1781 13.6342,13.5181 C13.5282,13.8541 13.3602,14.1461 12.9552,13.9691 C12.4982,13.7691 12.0052,13.8561 11.5452,13.7211 C11.2862,13.6451 11.0052,13.5951 10.9382,13.9521 C10.8742,14.2881 11.1592,14.3691 11.4072,14.4441 C11.7742,14.5561 12.1472,14.6501 12.5072,14.7771 C12.7352,14.8571 12.8992,15.0031 12.7542,15.2861 C12.2842,16.2041 11.8862,17.1731 11.3312,18.0471 L11.3262,18.0451 C11.3182,18.0561 11.3102,18.0681 11.3012,18.0801 C11.2892,18.0981 11.2752,18.1211 11.2582,18.1461 C11.2612,18.1461 11.2632,18.1471 11.2662,18.1481 C11.2062,18.2401 11.1532,18.3361 11.0892,18.4241 C11.1882,18.4481 11.2872,18.4721 11.3862,18.4961 C10.6592,20.0521 10.7002,21.9461 10.5422,23.7041 C10.3002,26.3871 9.4702,29.0161 8.1272,31.3521 C7.2282,32.9151 5.9722,34.4831 4.2892,35.2411 C3.7772,35.4711 2.7012,35.4691 2.3942,35.9781 C2.3732,36.0131 2.3702,36.0511 2.3562,36.0871 C-0.3288,40.5081 -1.5058,49.7471 3.1632,53.1841 C8.3212,56.9801 14.1892,59.3971 20.4662,60.0771 C21.9792,60.2411 23.4932,60.3631 25.0092,60.4811 C26.2152,60.5751 27.4232,60.5541 28.6222,60.3931 C29.9422,60.2161 30.3062,59.8931 30.5482,58.7681 C31.0712,56.3351 27.6962,55.6141 26.0502,55.1831 C23.7482,54.5821 21.3822,54.2841 19.0392,53.8991 C15.5402,53.3241 11.9822,52.3771 8.6972,51.0341 C8.1032,50.7911 7.3952,50.7301 6.9082,50.0981 C7.3422,49.9881 7.7032,50.0771 8.0662,50.1251 C9.0132,50.2471 9.9542,50.4581 10.9132,50.4381 C13.0822,50.3931 15.2352,50.6671 17.3992,50.7211 C19.4002,50.7711 21.3922,50.8351 23.3842,50.4871 C24.1242,50.3581 24.8772,50.1251 25.6492,50.2401 C26.5062,50.3691 27.3482,50.2861 28.2002,50.1721 C28.7812,50.0961 29.2272,49.8681 29.5842,49.4261 C29.6152,49.1911 29.6462,48.9561 29.6762,48.7211 C28.5712,47.2931 27.6402,46.7741 27.5382,44.8301 C27.1362,37.0991 26.4812,29.3451 26.7532,21.6241 C26.7842,20.7251 27.1532,20.1771 28.0312,19.8541 C29.3052,19.3831 30.3162,18.5871 30.5762,17.1321 C30.6322,16.8201 30.6692,16.5051 30.7202,16.1921 C30.7742,15.8701 30.9302,15.6931 31.2952,15.6931 C31.7392,15.6931 32.1862,15.6551 32.6262,15.5911 C32.8402,15.5601 33.0782,15.4441 33.0552,15.1681 C33.0342,14.9141 32.8432,14.7901 32.5902,14.7761" id="Fill-3" fill="#f995b9" mask="url(#petpink-cat-mask-2)"/></g><path d="M27.8651,10.2995 C26.8061,10.4995 26.0301,10.7565 25.4211,11.3735 C25.2061,11.5925 25.0441,11.8525 25.2461,12.1325 C25.4401,12.4025 25.7561,12.3625 26.0231,12.2365 C26.4531,12.0355 26.8461,11.7195 27.2941,11.6035 C27.8361,11.4625 28.4261,11.3805 28.9601,11.7165 C29.1201,11.8185 29.2811,11.9075 29.4821,11.9315 C29.7211,11.9585 29.9241,11.9465 30.0591,11.7175 C30.2151,11.4515 30.1531,11.2195 29.9241,11.0445 C29.2481,10.5285 28.5191,10.1715 27.8651,10.2995" id="Fill-6" fill="#f34a88"/><path d="M19.0141,10.7849 C18.6521,10.9049 18.0411,10.9899 17.6581,11.5309 C17.5441,11.6909 17.4311,11.8499 17.5401,12.0469 C17.6471,12.2399 17.8491,12.2679 18.0391,12.2459 C18.2231,12.2239 18.4251,12.1899 18.5781,12.0959 C19.4001,11.5919 20.1841,11.5899 20.9471,12.2079 C20.9951,12.2469 21.0541,12.2759 21.1111,12.3029 C21.4371,12.4559 21.7391,12.4379 21.9411,12.1109 C22.1341,11.7979 21.9471,11.5759 21.7081,11.3839 C20.9761,10.7969 20.1341,10.6349 19.0141,10.7849" id="Fill-8" fill="#f34a88"/><path d="M28.5267,47.2448 C28.5087,47.1948 28.4917,47.1458 28.4737,47.0968 C28.4387,47.1328 28.4027,47.1698 28.3667,47.2068 L28.4407,47.2538 L28.5267,47.2448 Z" id="Fill-10" fill="#3ce7e5"/><path d="M18.8183,17.2771 C19.8603,17.2501 20.4143,16.8571 20.4943,16.0871 C20.5873,15.1931 19.8863,14.3741 18.8623,14.1781 C18.0623,14.0261 17.3643,14.4611 17.1023,15.2741 C16.7573,16.3401 17.5873,17.3081 18.8183,17.2771" id="Fill-12" fill="#fbbfd5"/><path d="M21.64,16.1472 C21.975,16.8362 22.857,17.1482 23.572,16.9142 C24.381,16.6482 24.844,15.8272 24.873,15.0082 L24.151,15.2052 C24.477,15.9202 24.926,16.6962 25.779,16.8292 C26.106,16.8792 26.473,16.8202 26.755,16.6372 C27.028,16.4602 27.185,16.1802 27.311,15.8882 C27.394,15.6952 27.367,15.4752 27.172,15.3592 C27.009,15.2612 26.724,15.3052 26.642,15.4982 C26.486,15.8602 26.287,16.1692 25.834,16.0522 C25.284,15.9092 25.032,15.2792 24.82,14.8132 C24.651,14.4422 24.11,14.6562 24.098,15.0082 C24.081,15.4792 23.833,15.9972 23.366,16.1672 C22.962,16.3132 22.496,16.1412 22.309,15.7552 C22.091,15.3072 21.423,15.7002 21.64,16.1472" id="Fill-14" fill="#f34a88"/><path d="M24.4852,14.6071 C24.1732,14.6311 23.8552,14.5651 23.5792,14.4171 C23.3152,14.2741 23.0702,13.9741 23.1872,13.6971 C23.2682,13.5071 23.4852,13.4191 23.6852,13.3691 C24.0922,13.2681 24.5192,13.2491 24.9332,13.3141 C25.2352,13.3611 25.5872,13.5161 25.6162,13.8211 C25.6392,14.0691 25.4322,14.2741 25.2282,14.4161 C25.0542,14.5371 24.8642,14.6441 24.6552,14.6761 C24.4462,14.7101 24.2142,14.6551 24.0752,14.4961" id="Fill-16" fill="#f34a88"/><path d="M14.8861,22.2273 C14.6361,21.2173 14.0881,20.3103 13.3091,19.6213 C12.6731,19.0563 11.9111,18.6623 11.1041,18.4073 C9.7981,20.6943 4.1081,32.1463 2.5171,35.6733 C4.2011,37.3493 6.4481,38.3293 8.8361,38.2943 C10.0311,38.2783 11.2121,38.0193 12.3231,37.5873 C13.4661,37.1423 14.5661,36.5323 15.4211,35.6403 C16.1871,34.8413 16.7121,33.8433 16.9021,32.7493 C17.0021,32.1713 17.0041,31.5783 16.9351,30.9963 C16.8611,30.3683 16.6661,29.8073 16.3481,29.2613 C16.0471,28.7433 15.6881,28.2583 15.4251,27.7183 C15.1541,27.1653 15.0381,26.5863 15.0071,25.9743 C14.9451,24.7223 15.1921,23.4593 14.8861,22.2273" id="Fill-18" fill="#f55e95"/><path d="M17.0975,3.6765 C17.2205,3.3715 17.3675,3.0435 17.6605,2.8975 C17.9755,2.7395 18.3725,2.8525 18.6395,3.0815 C18.9055,3.3125 19.0665,3.6385 19.2065,3.9605 C19.4725,4.5725 19.6895,5.2045 19.8535,5.8505 C20.1765,7.1165 19.1695,7.6805 18.1515,8.2025 C17.4995,8.5365 16.7975,8.7685 16.0785,8.9105 C15.9875,8.9285 15.8805,8.9415 15.8105,8.8795 C15.7355,8.8145 15.7405,8.6975 15.7525,8.5995 C15.9575,6.9135 16.4645,5.2485 17.0975,3.6765" id="Fill-20" fill="#c23b6c"/><path d="M26.953,2.8318 C26.765,2.5638 26.546,2.2778 26.227,2.2018 C25.885,2.1208 25.524,2.3198 25.317,2.6038 C25.11,2.8888 25.027,3.2428 24.964,3.5888 C24.844,4.2448 24.777,4.9098 24.764,5.5768 C24.758,5.8658 24.765,6.1668 24.886,6.4308 C25.172,7.0508 25.889,7.3118 26.487,7.4918 C27.319,7.7418 28.244,7.9858 29.027,7.6108 C28.512,5.8588 28.017,4.3488 26.953,2.8318" id="Fill-22" fill="#c23b6c"/><path d="M25.2689,48.4157 C24.5259,48.1087 23.8049,47.7567 23.1099,47.3537 C22.7999,47.1747 22.5059,46.9697 22.1969,46.7887 C22.0209,46.6857 21.9019,46.6627 21.9089,46.5197 C21.9129,46.4227 22.0649,46.2357 22.1109,46.1457 C22.7019,45.0007 23.0749,43.7577 23.2359,42.4797 C23.5589,39.9317 23.0109,37.3157 21.6559,35.1297 C21.4019,34.7207 20.7519,35.0967 21.0079,35.5087 C22.5499,37.9957 22.9769,41.0677 22.1949,43.8887 C22.0049,44.5717 21.7479,45.2347 21.4149,45.8617 C21.2129,46.2427 20.9079,46.6397 21.2559,47.0337 C21.6839,47.5187 22.4849,47.8697 23.0419,48.1787 C23.6989,48.5407 24.3769,48.8527 25.0699,49.1387 C25.5159,49.3217 25.7099,48.5977 25.2689,48.4157" id="Fill-24" fill="#f55e95"/></g><g id="Group-29" transform="translate(0.000000, 0.292400)"><mask id="petpink-cat-mask-4" fill="#ffffff"><use xlink:href="#petpink-cat-path-3" fill="#ffffff"/></mask><g id="Clip-28"/></g><g id="Group-48" transform="translate(15.000000, 2.292400)"><path d="M12.8651,8.2995 C11.8061,8.4995 11.0301,8.7565 10.4211,9.3735 C10.2061,9.5925 10.0441,9.8525 10.2461,10.1325 C10.4401,10.4025 10.7561,10.3625 11.0231,10.2365 C11.4531,10.0355 11.8461,9.7195 12.2941,9.6035 C12.8361,9.4625 13.4261,9.3805 13.9601,9.7165 C14.1201,9.8185 14.2811,9.9075 14.4821,9.9315 C14.7211,9.9585 14.9241,9.9465 15.0591,9.7175 C15.2151,9.4515 15.1531,9.2195 14.9241,9.0445 C14.2481,8.5285 13.5191,8.1715 12.8651,8.2995" id="Fill-30" fill="#d44076"/><path d="M4.0141,8.7849 C3.6521,8.9049 3.0411,8.9899 2.6581,9.5309 C2.5441,9.6909 2.4311,9.8499 2.5401,10.0469 C2.6471,10.2399 2.8491,10.2679 3.0391,10.2459 C3.2231,10.2239 3.4251,10.1899 3.5781,10.0959 C4.4001,9.5919 5.1841,9.5899 5.9471,10.2079 C5.9951,10.2469 6.0541,10.2759 6.1111,10.3029 C6.4371,10.4559 6.7391,10.4379 6.9411,10.1109 C7.1341,9.7979 6.9471,9.5759 6.7081,9.3839 C5.9761,8.7969 5.1341,8.6349 4.0141,8.7849" id="Fill-32" fill="#d44076"/><path d="M13.5267,45.2448 C13.5087,45.1948 13.4917,45.1458 13.4737,45.0968 C13.4387,45.1328 13.4027,45.1698 13.3667,45.2068 L13.4407,45.2538 L13.5267,45.2448 Z" id="Fill-34" fill="#3ce7e5"/><path d="M3.8183,15.2771 C4.8603,15.2501 5.4143,14.8571 5.4943,14.0871 C5.5873,13.1931 4.8863,12.3741 3.8623,12.1781 C3.0623,12.0261 2.3643,12.4611 2.1023,13.2741 C1.7573,14.3401 2.5873,15.3081 3.8183,15.2771" id="Fill-36" fill="#f55e95"/><path d="M14.536,14.7849 C15.414,14.7629 15.881,14.4309 15.948,13.7819 C16.026,13.0279 15.436,12.3379 14.573,12.1739 C13.899,12.0459 13.311,12.4119 13.09,13.0979 C12.8,13.9959 13.498,14.8109 14.536,14.7849" id="Fill-38" fill="#f55e95"/><path d="M6.64,14.1472 C6.975,14.8362 7.857,15.1482 8.572,14.9142 C9.381,14.6482 9.844,13.8272 9.873,13.0082 L9.151,13.2052 C9.477,13.9202 9.926,14.6962 10.779,14.8292 C11.106,14.8792 11.473,14.8202 11.755,14.6372 C12.028,14.4602 12.185,14.1802 12.311,13.8882 C12.394,13.6952 12.367,13.4752 12.172,13.3592 C12.009,13.2612 11.724,13.3052 11.642,13.4982 C11.486,13.8602 11.287,14.1692 10.834,14.0522 C10.284,13.9092 10.032,13.2792 9.82,12.8132 C9.651,12.4422 9.11,12.6562 9.098,13.0082 C9.081,13.4792 8.833,13.9972 8.366,14.1672 C7.962,14.3132 7.496,14.1412 7.309,13.7552 C7.091,13.3072 6.423,13.7002 6.64,14.1472" id="Fill-40" fill="#d44076"/><path d="M9.4852,12.6071 C9.1732,12.6311 8.8552,12.5651 8.5792,12.4171 C8.3152,12.2741 8.0702,11.9741 8.1872,11.6971 C8.2682,11.5071 8.4852,11.4191 8.6852,11.3691 C9.0922,11.2681 9.5192,11.2491 9.9332,11.3141 C10.2352,11.3611 10.5872,11.5161 10.6162,11.8211 C10.6392,12.0691 10.4322,12.2741 10.2282,12.4161 C10.0542,12.5371 9.8642,12.6441 9.6552,12.6761 C9.4462,12.7101 9.2142,12.6551 9.0752,12.4961" id="Fill-42" fill="#d44076"/><path d="M2.0975,1.6765 C2.2205,1.3715 2.3675,1.0435 2.6605,0.8975 C2.9755,0.7395 3.3725,0.8525 3.6395,1.0815 C3.9055,1.3125 4.0665,1.6385 4.2065,1.9605 C4.4725,2.5725 4.6895,3.2045 4.8535,3.8505 C5.1765,5.1165 4.1695,5.6805 3.1515,6.2025 C2.4995,6.5365 1.7975,6.7685 1.0785,6.9105 C0.9875,6.9285 0.8805,6.9415 0.8105,6.8795 C0.7355,6.8145 0.7405,6.6975 0.7525,6.5995 C0.9575,4.9135 1.4645,3.2485 2.0975,1.6765" id="Fill-44" fill="#f55e95"/><path d="M11.953,0.8318 C11.765,0.5638 11.546,0.2778 11.227,0.2018 C10.885,0.1208 10.524,0.3198 10.317,0.6038 C10.11,0.8888 10.027,1.2428 9.964,1.5888 C9.844,2.2448 9.777,2.9098 9.764,3.5768 C9.758,3.8658 9.765,4.1668 9.886,4.4308 C10.172,5.0508 10.889,5.3118 11.487,5.4918 C12.319,5.7418 13.244,5.9858 14.027,5.6108 C13.512,3.8588 13.017,2.3488 11.953,0.8318" id="Fill-46" fill="#f55e95"/></g></g></g></g><g id="Chairs" transform="translate(90.000000, 124.000000) scale(1 1)"><g id="Chairs/Stool" stroke="none" stroke-width="1" fill="none" fill-rule="evenodd"><g id="Chair" transform="translate(0.000000, 56.000000)"><path d="M50.3700137,62.47 C49.5091374,62.47 48.7592042,61.8055913 48.6418604,60.8934181 L41.3398796,4.10536011 L10.7825032,4.10536011 L3.59359902,60.8889739 C3.46772119,61.885587 2.59084343,62.5855493 1.63502533,62.4533342 C0.679207242,62.3222302 0.00714764562,61.410057 0.133025475,60.4134439 L7.52141399,2.04991506 C7.63555745,1.14663029 8.37588976,0.47 9.25170076,0.47 L42.866415,0.47 C43.7411592,0.47 44.4804248,1.14440819 44.5967017,2.0465819 L52.102434,60.4101107 C52.2293786,61.4056128 51.5594525,62.3200081 50.6036344,62.4533342 C50.5257608,62.4644447 50.4468205,62.47 50.3700137,62.47" id="Fill-9" fill="#b03562"/><g id="Group-3" transform="translate(22.000000, 0.273000)" fill="#c53c6e"><path d="M50.3700137,62.197 C49.5091374,62.197 48.7592042,61.5325913 48.6418604,60.6204181 L41.3398796,3.83236011 L10.7825032,3.83236011 L3.59359902,60.6159739 C3.46772119,61.612587 2.59084343,62.3125493 1.63502533,62.1803342 C0.679207242,62.0492302 0.00714764562,61.137057 0.133025475,60.1404439 L7.52141399,1.77691506 C7.63555745,0.873630289 8.37588976,0.197 9.25170076,0.197 L42.866415,0.197 C43.7411592,0.197 44.4804248,0.871408186 44.5967017,1.7735819 L52.102434,60.1371107 C52.2293786,61.1326128 51.5594525,62.0470081 50.6036344,62.1803342 C50.5257608,62.1914447 50.4468205,62.197 50.3700137,62.197" id="Fill-1"/></g></g><path d="M12,54 L62,54 C64.7614237,54 67,56.2385763 67,59 L67,59 L67,59 L7,59 C7,56.2385763 9.23857625,54 12,54 Z" id="top" fill="#b03562"/></g></g><g transform="translate(51.000000, 6.000000) scale(1 1)" id="Master/Character/Sitting"><defs><polygon id="mastercharactersitting-path-1" points="0.840896703 0.650351807 27.1774945 0.650351807 27.1774945 2.08697831 0.840896703 2.08697831"/><polygon id="mastercharactersitting-path-3" points="0 0.808221687 63.1355202 0.808221687 63.1355202 64.7789205 0 64.7789205"/><polygon id="mastercharactersitting-path-5" points="0.177621134 0.820415608 6.429 0.820415608 6.429 3.2078 0.177621134 3.2078"/></defs><g id="Master/Character/Sitting" stroke="none" stroke-width="1" fill="none" fill-rule="evenodd"><g id="Sitting" transform="translate(32.000000, 113.000000) scale(1 1)"><g id="Sitting/Long Skirt 1" stroke="none" stroke-width="1" fill="none" fill-rule="evenodd"><g id="Group-15" transform="translate(24.000000, 33.000000)"><path d="M51.7363114,77 C51.7363114,77 51.6573977,56.0876931 52.0829325,50.9613893 C52.3416497,47.8418491 52.8850556,44.7366558 53.4084834,41.6458093 C53.6342366,40.3178303 55.4952021,34.7665014 54.2495639,33.8716175 C53.2846188,33.1793827 17.7535452,29 14.420051,29 C-2.12581016,29 5.03270008,13.4264795 6.63694627,7.25464995 C7.07446796,5.57069007 28.1311173,7.25464995 28.1311173,7.25464995 C28.1311173,7.25464995 38.7265341,14.5105623 41.0899503,14.9606943 C63.0309638,19.1472804 64.9059141,24.7640667 66.133572,25.7943488 C67.7128455,27.1160511 68.1633529,30.3467792 67.9505855,34.4490777 C67.3132823,46.7810799 58.2801575,77 58.2801575,77 L51.7363114,77 Z" id="Fill-1" fill="#6c213c"/><path d="M71.5460122,89 L48.091631,84.7811597 C47.9808537,84.4664124 47.9769324,84.0473339 48.0455555,83.560747 C48.2975001,81.7599369 49.5670267,79.0429406 50.2787459,77.3131459 C50.3640345,77.1106206 50.4395199,76.9229997 50.5032413,76.7502832 C50.6140185,76.4600845 50.6963662,76.2163527 50.73754,76.0339922 C51.0649701,74.5768615 52.4511559,75.0862435 52.4511559,75.0862435 C54.3569162,77.5945773 57.745915,74.956487 59.085045,76.2628195 C59.085045,76.2628195 59.1399435,76.3154235 59.260524,76.4425498 C59.3713012,76.5591554 59.5389375,76.7388857 59.7693149,76.997522 C60.1026269,77.3675034 60.5663227,77.9031874 61.1888319,78.6501641 C62.7122638,80.4834133 65.6571734,82.042245 68.1276035,83.5361985 C68.4413089,83.7255728 68.7314864,83.9114403 68.9991164,84.0920473 C69.2020446,84.2305712 69.3922285,84.3655881 69.5696681,84.4979748 C71.5342482,85.9586124 72.0077473,87.1018725 72,87.8698909 C71.9930424,88.6072235 71.5460122,89 71.5460122,89" id="Fill-3" fill="#f780ab"/><path d="M71.5451253,90 L48.0916313,85.3462282 C47.9808537,84.9990329 47.9769323,84.5367505 48.0455557,84 L72,88.7533849 C71.9931377,89.565764 71.5451253,90 71.5451253,90" id="Fill-5" fill="#b93867"/><path d="M72.6471415,68 C72.6471415,68 62.3715235,49.4747858 60.1737724,44.738063 C57.9750155,40.0031268 54.0411919,28.4650703 54.0411919,28.4650703 C54.0411919,28.4650703 48,26.9234216 32.168024,26.9234216 C-5.65454553,26.9234216 3.76148854,10.8445542 3.76148854,10.8445542 L19.3519289,12 C19.3519289,12 46.4441146,14.6381635 54.7251602,15.678956 C56.7197325,15.9291036 58.5272193,16.2668028 60.1506382,16.6902669 C62.2377474,17.2352312 64.2685297,19.9296779 66.1424017,23.6684907 C71.7750819,34.9045834 79,65.9880988 79,65.9880988 L72.6471415,68 Z" id="Fill-7" fill="#6c213c"/><path d="M95.941852,71.4031003 L72.1674674,77 C71.9028587,76.765165 71.6816782,76.3946477 71.4948361,75.9362846 C70.795946,74.2393847 70.5596161,71.324822 70.3202563,69.5078952 C70.2939974,69.2948043 70.2667286,69.0982387 70.2374399,68.9208079 C70.1889619,68.6181317 70.139474,68.3693806 70.0829165,68.19108 C69.6314657,66.7690239 71.17064,66.6690016 71.17064,66.6690016 C74.2207097,68.1345456 75.9780347,64.4467671 77.8858432,65.0721239 C77.8858432,65.0721239 77.9636099,65.0964772 78.1403523,65.1608393 C78.3029554,65.2199829 78.5493849,65.3121774 78.8958001,65.4495993 C79.3937088,65.6461649 80.0976487,65.9357947 81.0571078,66.3506698 C83.4072774,67.3691576 86.9239472,67.5796393 89.9699771,67.9197151 C90.3588105,67.9632031 90.721385,68.0127794 91.0607305,68.0667044 C91.3192795,68.1075831 91.563689,68.1519408 91.7969891,68.1980381 C94.3602596,68.7111959 95.3863758,69.5365973 95.7762191,70.2210977 C96.1509131,70.876896 95.941852,71.4031003 95.941852,71.4031003" id="Fill-9" fill="#f780ab"/><path d="M95.943442,71.2205543 L72.6597379,77 C72.4005905,76.7566076 72.1839749,76.3749038 72,75.901591 L95.7812276,70 C96.1471992,70.6771876 95.943442,71.2205543 95.943442,71.2205543" id="Fill-11" fill="#b93867"/><path d="M21.6667001,3 C21.6667001,3 57.3073184,3.82932485 68,10.8445542 C78.6926816,17.8588857 80,57.9245708 80,57.9245708 C80,57.9245708 60,65 44.2201385,57.9245708 C41.6346695,42.4625427 38.2279567,33.7775791 34,31.8696801 C33.2877682,31.0075261 25.3952014,30.1776615 10.3222995,29.3800862 L10.3222995,29.3800875 C5.40312352,29.1197917 1.40623035,25.3158774 0.903017488,20.4155893 C0.0769159889,12.371011 1.58637906,5.56581454 5.4314067,0 L21.6667001,3 Z" id="Fill-13" fill="#f4508c"/></g></g></g><g id="Head" transform="translate(33.000000, 40.000000) scale(1 1)"><g id="Head/Full Beard" stroke="none" stroke-width="1" fill="none" fill-rule="evenodd"><path d="M43.8893,53.8614 L43.6873,61.5304 C43.6213,64.2234 41.9273,65.6234 39.2773,65.5384 C37.0143,65.4654 34.9273,64.2284 34.7193,61.9744 L35.6173,49.9214 L43.8893,53.8614 Z" id="Fill-3" fill="#60c2ea"/><path d="M43.7643,58.6016025 C38.3973,58.6070235 34.9903,50.6016025 34.9903,50.6016025 L43.9253,52.6083815 L43.7643,58.6016025 Z" id="Fill-6" fill-opacity=".18" fill="#17070d"/><g id="Group-20" transform="translate(28.300000, 28.600000)"><path d="M8.1875,21.7317 C8.0685,21.8137 7.9555,21.9127 7.8485,22.0287 C6.5535,23.4367 2.6865,25.9457 2.1335,22.3597 C1.9855,21.4037 2.7085,20.1657 2.9175,19.2297 C3.2235,17.8627 3.3115,16.4887 2.8815,15.1357 C2.3935,13.5997 1.5225,12.1917 1.1845,10.6157 C0.6595,8.1767 1.6475,5.5217 3.4955,3.8807 C4.6915,2.8197 6.1485,2.5887 7.6415,2.2137 C9.1005,1.8457 9.9515,1.0237 11.3045,0.5007 C13.9515,-0.5243 17.2245,0.0467 19.2915,2.0127 C20.0175,2.7047 20.6035,3.5377 21.3735,4.1777 C22.4845,5.1027 23.9615,5.5757 25.4035,5.4687 C26.1755,5.4127 26.9675,5.1987 27.7105,5.4177 C28.4535,5.6357 29.0595,6.5567 28.6105,7.1877 C28.3935,7.4937 27.9565,7.7377 28.0405,8.1027 C28.1375,8.5267 28.7465,8.4637 29.1695,8.5657 C29.9485,8.7527 30.2445,9.7977 29.9305,10.5357 C29.3105,11.9917 27.3575,12.6887 26.4915,14.0067 C25.4545,15.5847 24.1255,16.6767 22.6775,17.9187 C21.0735,19.2927 19.0885,20.1287 17.1225,20.8997 C15.9345,21.3657 14.7175,21.8197 13.4435,21.9067 C11.8245,22.0177 9.6105,20.7427 8.1875,21.7317" id="Fill-1" fill="#37111f"/><path d="M15.1968,29.2161025 C9.8298,29.2211 6.4238,21.8411 6.4238,21.8411 L15.3578,23.6901 L15.1968,29.2161025 Z" id="Fill-6" fill="#2f8bb0"/><path d="M13.5488,25.6253415 L13.5488,25.6253415 C18.0278,25.6393 21.7248,22.1123 21.8588,18.4553 L22.1228,9.8263 C22.2908,5.2423 19.3678,1.3533 14.7928,1.0343 C10.1088,0.7083 4.6518,4.1843 4.3258,8.8673 L4.1888,15.8113 C4.0838,21.1803 8.1918,25.2523 13.5488,25.6253415" id="Fill-10" fill="#60c2ea"/><path d="M0.0088,14.9739 C-0.1252,16.8949 1.3228,18.5589 3.2428,18.6929 C5.1638,18.8269 6.8278,17.3779 6.9618,15.4579 C7.0958,13.5379 5.6468,11.8729 3.7268,11.7399 C1.8068,11.6059 0.1418,13.0539 0.0088,14.9739" id="Fill-12" fill="#60c2ea"/><path d="M4.6284,16.3343 C4.6284,16.3343 4.8034,13.8133 2.3654,14.0433" id="Fill-14" fill-opacity=".18" fill="#17070d"/><path d="M22.0342,3.6878 C22.7822,4.5628 23.4802,5.4938 24.1692,6.3688 C24.5862,6.8968 25.0062,7.4528 25.1602,8.1078 C25.3152,8.7618 25.1312,9.5458 24.5572,9.8968 C24.0392,10.2128 23.3522,10.0948 22.8282,9.7898 C22.3042,9.4828 21.8972,9.0168 21.4582,8.5978 C20.6112,7.7898 19.6152,7.1368 18.5352,6.6848 C18.8842,7.1738 18.5612,7.9118 18.0322,8.1938 C17.5012,8.4748 16.8602,8.4208 16.2692,8.3148 C14.7062,8.0348 13.2012,7.4448 11.8642,6.5878 C11.7012,7.2448 11.5252,7.9268 11.0852,8.4398 C10.6452,8.9528 9.8552,9.2348 9.2742,8.8898 C8.9762,8.7128 8.7812,8.4068 8.6142,8.1028 C7.4902,10.4988 8.6492,13.2088 8.4612,15.7808 L6.9582,15.5618 C6.5172,14.2508 5.2372,13.4698 4.6532,12.2398 C4.0392,10.9448 4.0792,9.3528 4.3162,7.9718 C4.6792,5.8648 5.5472,3.6908 7.3342,2.5158 C8.0902,2.0188 8.9642,1.7328 9.8392,1.4998 C11.8992,0.9558 14.0322,0.6828 16.1622,0.6938 C17.5812,0.7008 19.1022,0.8728 20.1812,1.7938 C20.8422,2.3578 21.4532,3.0058 22.0342,3.6878" id="Fill-16" fill="#37111f"/><path d="M7.2139,12.2395 C7.2139,12.2395 9.5119,19.1865 11.3539,18.5775 C13.1949,17.9685 15.3219,17.7185 16.9949,18.5775 C16.9949,18.5775 19.8069,17.4265 21.4829,18.7005 C22.6059,19.5545 21.9659,28.0175 18.0089,29.2375 C14.0519,30.4565 8.7229,28.9245 7.4369,24.8105 C6.1509,20.6965 4.6529,12.2395 4.6529,12.2395 L7.2139,12.2395 Z" id="Fill-18" fill="#37111f"/></g></g></g><g id="Expression" transform="translate(64.000000, 76.000000) scale(1 1)"><defs><polygon id="expressionkiss-path-3" points="0.425223631 0.246097151 3.877 0.246097151 3.877 3.22850719 0.425223631 3.22850719"/><path d="M0.35,1.157 C0.665,1.276 1.002,1.327 1.337,1.363 C1.478,1.378 1.62,1.388 1.763,1.393 C1.957,1.642 2.235,1.818 2.417,2.076 C2.599,2.336 2.636,2.753 2.371,2.927 C2.189,3.047 1.945,3 1.739,2.925 C1.164,2.714 0.074,2.011 0.138,1.278 C0.145,1.21 0.17,1.143 0.199,1.077 C0.4494,0.4978 1.4894,0.0238 2.0094,0.2468 C2.2704,0.3588 2.4404,0.6598 2.3844,0.9378 C2.3284,1.2168 2.0394,1.4328 1.7594,1.3898 C1.7604,1.3918 1.7614,1.3928 1.7634,1.3928 C1.6204,1.3888 1.4774,1.3778 1.3374,1.3628 C1.0024,1.3268 0.6654,1.2758 0.3504,1.1568 L0.27365,1.1183 L0.27365,1.1183 L0.35,1.157 L0.35,1.157 Z" id="expressionkiss-path-1"/></defs><g id="Expression/Kiss" stroke="none" stroke-width="1" fill="none" fill-rule="evenodd"><path d="M14.6905798,3.30293789 C13.9255798,3.12406198 14.2395798,2.45327734 15.0615798,2.50258288 C15.7775798,2.54615521 16.6545798,2.67801886 17.0405798,3.04838371 C17.7455798,3.7260482 15.5395798,3.48812031 14.7145798,3.30867109 C14.7065798,3.30695113 14.6985798,3.30523117 14.6905798,3.30293789" id="Fill-5" fill="#37111f"/><g id="Group-31" transform="translate(4.200000, 2.750000)"><path d="M8.1832,6.5065 C8.2882,6.6395 8.3992,6.7685 8.5032,6.9025 C8.4732,6.8625 8.4962,6.8935 8.5132,6.9145 C8.5292,6.9365 8.5452,6.9575 8.5602,6.9805 C8.5902,7.0205 8.6192,7.0615 8.6472,7.1025 C8.7042,7.1865 8.7572,7.2725 8.8032,7.3615 C8.8042,7.3655 8.8312,7.4115 8.8282,7.4155 C8.8112,7.3745 8.8082,7.3685 8.8202,7.3985 C8.8242,7.4085 8.8282,7.4195 8.8322,7.4315 C8.8372,7.4465 8.8422,7.4625 8.8462,7.4795 C8.8492,7.4895 8.8632,7.5605 8.8522,7.5005 C8.8402,7.4325 8.8502,7.5195 8.8502,7.5185 C8.8292,7.4935 8.8672,7.4435 8.8512,7.4905 C8.8422,7.5195 8.8472,7.5075 8.8672,7.4555 C8.8582,7.4725 8.8492,7.4875 8.8392,7.5035 C8.8382,7.5065 8.7872,7.5755 8.8202,7.5345 C8.7802,7.5845 8.7332,7.6285 8.6832,7.6705 C8.6572,7.6925 8.6552,7.6935 8.6772,7.6765 C8.6652,7.6845 8.6542,7.6925 8.6422,7.6995 C8.6152,7.7185 8.5872,7.7365 8.5582,7.7535 C8.4452,7.8205 8.3242,7.8765 8.2022,7.9285 C8.0572,7.9895 8.0252,8.2025 8.0982,8.3265 C8.1852,8.4765 8.3502,8.4925 8.4952,8.4305 C8.7742,8.3125 9.0562,8.1645 9.2482,7.9245 C9.3472,7.8015 9.4322,7.6675 9.43120874,7.5045 C9.43120874,7.4025 9.4052,7.3035 9.3672,7.2085 C9.1962,6.7865 8.8742,6.4465 8.5942,6.0955 C8.4962,5.9725 8.2852,5.9925 8.1832,6.0955 C8.0612,6.2165 8.0852,6.3835 8.1832,6.5065" id="Fill-1" fill-opacity=".18" fill="#17070d"/><path d="M9.6202,4.6989 C9.7552,4.4549 9.9322,4.2189 10.0962,4.0099 C10.3822,3.6449 10.7082,3.2919 11.1312,3.1009 C11.8442,2.7809 12.7242,3.0009 13.3092,3.5189 C13.3912,3.5919 13.4722,3.6719 13.5772,3.7009 C13.8492,3.7789 13.8322,3.4139 14.1362,3.5249 C14.6932,3.7289 13.9472,4.2669 13.7362,4.3709 C13.6522,4.4129 13.5632,4.4479 13.4702,4.4559 C13.1402,4.4829 12.8892,4.1819 12.6052,4.0119 C12.2422,3.7959 11.7712,3.7919 11.3832,3.9599 C10.7562,4.2319 10.3982,4.9369 9.9662,5.4339 C9.9052,5.5049 9.7892,5.5269 9.7002,5.4359 C9.4512,5.1819 9.3402,5.3409 9.5012,4.9449 C9.5342,4.8619 9.5752,4.7799 9.6202,4.6989" id="Fill-3" fill="#37111f"/><path d="M1.108,3.8796 C1.139,3.8646 1.174,3.8526 1.212,3.8446 C1.442,3.7946 1.688,3.9826 1.868,4.1016 C1.875,4.1126 1.884,4.1216 1.896,4.1286 C2.365,3.9806 2.699,3.5046 3.16,3.2986 C3.586,3.1086 4.045,3.0206 4.512,3.0366 C5.42,3.0696 6.332,3.4936 6.858,4.2486 C6.976,4.4186 6.912,4.7016 6.74,4.8216 C6.547,4.9556 6.34,4.9126 6.186,4.7756 C5.577,4.2316 4.8,3.6026 3.925,3.7486 C3.464,3.8256 3.041,4.1036 2.787,4.4956 C2.41,5.0766 2.018,4.9916 1.492,4.6886 C1.235,4.5396 0.58,4.1366 1.108,3.8796" id="Fill-5" fill="#37111f"/><path d="M5.0303,0.9137 C4.9423,0.9067 4.8553,0.8967 4.7683,0.8917 C4.0423,0.8447 3.2323,1.1197 2.5813,1.4237 C2.4203,1.4987 2.1343,1.3567 2.0833,1.1967 C1.7863,0.2657 4.4263,-0.0553 4.9473,0.0077 C5.2313,0.0417 6.0143,0.2367 5.7703,0.6967 C5.7153,0.8027 5.6003,0.8627 5.4863,0.8927 C5.3373,0.9317 5.1843,0.9267 5.0303,0.9137" id="Fill-7" fill="#37111f"/><g id="Group-11" transform="translate(7.000000, 9.081000)"><mask id="expressionkiss-mask-2" fill="#ffffff"><use xlink:href="#expressionkiss-path-1" fill="#ffffff"/></mask><use id="Combined-Shape" fill-opacity=".5" fill="#f5538e" xlink:href="#expressionkiss-path-1"/></g><path d="M3.8448,8.863 C3.5848,9.227 3.1758,9.48 2.7378,9.585 C2.2318,9.705 1.6948,9.639 1.2058,9.464 C0.8858,9.349 0.5758,9.181 0.3528,8.925 C-0.0332,8.482 -0.0592,7.669 0.0698,7.12 C0.1468,6.791 0.3378,6.476 0.6318,6.309 C1.0638,6.064 1.5338,6.045 2.0078,6.133 C2.4268,6.211 2.8508,6.3 3.2248,6.504 C3.9698,6.912 4.3678,7.909 3.9538,8.687 C3.9218,8.749 3.8848,8.807 3.8448,8.863" id="Fill-14" fill-opacity=".5" fill="#f5538e"/><path d="M0.7491,8.2106 C0.6981,8.2106 0.6461,8.1946 0.6021,8.1626 C0.4901,8.0806 0.4661,7.9246 0.5471,7.8136 L1.2041,6.9136 C1.2861,6.8016 1.4431,6.7786 1.5531,6.8586 C1.6651,6.9406 1.6891,7.0976 1.6081,7.2086 L0.9511,8.1076 C0.9021,8.1756 0.8261,8.2106 0.7491,8.2106" id="Fill-16" fill="#fcd3e2"/><path d="M2.6524,8.9606 L2.6384,8.9606 C2.5004,8.9526 2.3954,8.8346 2.4024,8.6966 L2.4654,7.5846 C2.4724,7.4456 2.5904,7.3566 2.7284,7.3486 C2.8664,7.3566 2.9714,7.4746 2.9644,7.6116 L2.9024,8.7246 C2.8944,8.8576 2.7844,8.9606 2.6524,8.9606" id="Fill-18" fill="#fcd3e2"/><path d="M1.5289,8.6803 C1.4899,8.6803 1.4509,8.6713 1.4149,8.6533 C1.2919,8.5893 1.2429,8.4393 1.3069,8.3163 L1.8869,7.1863 C1.9489,7.0643 2.1009,7.0163 2.2229,7.0773 C2.3459,7.1413 2.3949,7.2913 2.3309,7.4143 L1.7509,8.5443 C1.7069,8.6303 1.6189,8.6803 1.5289,8.6803" id="Fill-20" fill="#fcd3e2"/><g id="Group-24" transform="translate(11.000000, 6.081000)"><mask id="expressionkiss-mask-4" fill="#ffffff"><use xlink:href="#expressionkiss-path-3" fill="#ffffff"/></mask><g id="Clip-23"/><path d="M0.6563,2.573 C0.8743,2.879 1.2173,3.09 1.5843,3.177 C2.0073,3.278 2.4583,3.223 2.8673,3.077 C3.1353,2.98 3.3953,2.84 3.5823,2.625 C3.9053,2.255 3.9273,1.573 3.8193,1.113 C3.7543,0.837 3.5943,0.574 3.3483,0.434 C2.9863,0.228 2.5923,0.213 2.1953,0.286 C1.8443,0.35 1.4893,0.426 1.1763,0.596 C0.5513,0.938 0.2183,1.773 0.5653,2.426 C0.5923,2.477 0.6223,2.526 0.6563,2.573" id="Fill-22" fill-opacity=".5" fill="#f5538e" mask="url(#expressionkiss-mask-4)"/></g><path d="M14.2501,8.1481 C14.1731,8.1481 14.0971,8.1131 14.0481,8.0451 L13.4981,7.2921 C13.4161,7.1801 13.4401,7.0241 13.5521,6.9421 C13.6621,6.8611 13.8191,6.8831 13.9011,6.9971 L14.4521,7.7511 C14.5331,7.8621 14.5091,8.0181 14.3971,8.1001 C14.3531,8.1321 14.3011,8.1481 14.2501,8.1481" id="Fill-25" fill="#fcd3e2"/><path d="M12.6553,8.777 C12.5233,8.777 12.4133,8.674 12.4053,8.541 L12.3533,7.609 C12.3453,7.471 12.4513,7.353 12.5893,7.345 C12.7473,7.357 12.8453,7.444 12.8523,7.582 L12.9053,8.513 C12.9123,8.651 12.8073,8.769 12.6693,8.777 L12.6553,8.777 Z" id="Fill-27" fill="#fcd3e2"/><path d="M13.5968,8.5417 C13.5068,8.5417 13.4188,8.4917 13.3748,8.4057 L12.8888,7.4597 C12.8248,7.3367 12.8728,7.1867 12.9958,7.1227 C13.1188,7.0617 13.2698,7.1077 13.3328,7.2307 L13.8188,8.1777 C13.8828,8.3007 13.8338,8.4507 13.7108,8.5147 C13.6748,8.5327 13.6358,8.5417 13.5968,8.5417" id="Fill-29" fill="#fcd3e2"/></g></g></g><g id="Upper" transform="translate(7.000000, 41.000000) scale(1 1)"><defs><polygon id="uppercheers-3-path-1" points="0.660957197 0.9911 43.1023 0.9911 43.1023 62 0.660957197 62"/><polygon id="uppercheers-3-path-3" points="-2.94875235e-13 0.3891 15.1884158 0.3891 15.1884158 9.75790635 -2.94875235e-13 9.75790635"/></defs><g id="Upper/Cheers 3" stroke="none" stroke-width="1" fill="none" fill-rule="evenodd"><g id="Group" transform="translate(71.869655, 44.515500)"><path d="M74.751,11.218 L69.508,11.895 C68.25,12.057 67.077,11.227 66.813,9.986 L65,1.481 L76.466,0 L76.873,8.687 C76.932,9.954 76.009,11.055 74.751,11.218" id="Fill-10" fill="#f4508c"/><path d="M67.6561732,10.2832158 L66.0468171,2.38470825 L65.7148148,2.42756198 C64.5163106,2.58226077 63.6203184,2.95661502 62.990132,3.49033586 C62.4573987,3.94152112 62.2059648,4.40734193 62.1322547,4.74349224 L62.1303452,4.88841576 L62.1891299,5.18334697 C62.2366026,5.41646703 62.2913606,5.67608229 62.3526927,5.9556107 C62.5280127,6.75465227 62.721021,7.55387773 62.9262137,8.30107617 C63.0594923,8.78640296 63.193809,9.23416189 63.3284942,9.63680203 C63.6439672,10.5808489 64.4067346,10.9789597 65.4070055,10.936883 C65.8351383,10.9188734 66.2843882,10.8222339 66.7339739,10.67287 C67.0316435,10.5739765 67.2663298,10.4745911 67.4065407,10.4057611 L67.6561732,10.2832158 Z M65.4754,3.192 L66.8364,9.869 L66.7932662,9.88672308 C66.7085878,9.91960641 66.6124169,9.95455949 66.5069712,9.98959129 C66.1159022,10.1195144 65.7292355,10.2026915 65.3767452,10.2175191 C64.6683632,10.2473175 64.2120633,10.0091611 64.0113401,9.40850067 C63.8811335,9.01924943 63.7505153,8.58381967 63.6205097,8.11041128 C63.4189958,7.37660934 63.2288045,6.58904868 63.0559633,5.80130413 L62.8524,4.834 L62.8844015,4.75138639 C62.9668994,4.56054212 63.1427788,4.30458033 63.4554573,4.03976493 C63.8890084,3.67257961 64.4931182,3.38916937 65.2989964,3.22531656 L65.4754,3.192 Z" id="Stroke-13" fill="#f4508c" fill-rule="nonzero"/><path d="M0.102245162,12.4361 C7.56924516,12.6701 35.1652452,26.3711 35.1652452,26.3711 L58.3212452,7.3241 C58.3212452,7.3241 59.5402452,4.1651 62.3522452,4.0721 C65.1652452,3.9781 65.9152452,3.9781 65.2582452,8.2901 C64.6022452,12.6031 61.6962452,12.7901 59.5402452,12.5091 C59.5402452,12.5091 46.5790811,34.0677267 35.1652452,35.4845 C23.7514092,36.9012733 4.10264516,23.1628363 4.10264516,23.1628363 L0.102245162,12.4361 Z" id="Fill-3" fill="#60c2ea"/><path d="M15.3507452,15.0583 C19.0447452,17.0123 22.7377452,19.3053 26.8967452,19.7043 C26.3367452,20.9713 25.1607452,21.9513 23.8117452,22.2723 C24.4117452,23.5843 24.1347452,25.2483 23.1427452,26.2953 C22.1507452,27.3433 14.0777452,33.3883 12.3357452,33.8063 C11.1837452,34.0823 9.77774516,34.2873 8.98474516,33.4083 C8.49174516,32.8623 8.41774516,32.0713 8.32274516,31.3413 C7.62574516,26.0173 2.27174516,20.2503 1.99374516,14.8643 C1.73474516,9.8563 11.8487452,13.2053 15.3507452,15.0583" id="Fill-5" fill="#c53c6e"/></g><path d="M56.3483,57.6226 L50.2843,58.8496 L44.7843,79.5676 C44.7843,79.5676 44.0573,117.0786 46.1333,117.4416 C48.0473,117.7756 81.6593,116.2166 87.1023,110.7996 L82.0653,85.3806 C82.0653,85.3806 82.5873,81.2846 82.3063,74.5346 C82.0243,67.7846 76.5343,58.5676 75.9713,56.9276 L73.6823,56.4756 C73.6823,56.4756 72.7923,59.8276 71.9613,60.8766 C70.3833,62.8686 67.9713,64.2416 65.4113,64.3656 C61.3363,64.5646 57.3293,61.5836 56.3483,57.6226" id="Fill-7" fill="#c53c6e"/><g id="Group-29" transform="translate(44.000000, 43.500000)"><path d="M20.4147,12.6871 C22.3637,12.9031 24.3757,12.7561 26.2477,12.1911 C27.8977,12.6611 31.9717,13.4271 31.9717,13.4271 C31.9577,14.9081 30.1067,17.6591 29.0767,18.7221 C28.1467,19.6831 26.9137,20.2971 25.6537,20.7461 C23.3097,21.5821 20.7437,21.9001 18.3107,21.3761 C15.8767,20.8531 13.5957,19.4361 12.2737,17.3271 C11.8427,16.6381 10.5367,15.6251 10.5727,14.8141 C10.5727,14.8141 16.1387,12.7081 17.7897,11.9351 C18.9297,12.2941 19.2247,12.5551 20.4147,12.6871" id="Fill-1" fill="#60c2ea"/><g id="Group-9" transform="translate(0.000000, 11.984500)"><mask id="uppercheers-3-mask-2" fill="#ffffff"><use xlink:href="#uppercheers-3-path-1" fill="#ffffff"/></mask><g id="Clip-8"/></g><g id="Group-12" transform="translate(27.156055, 0.500000)"/></g><g id="Group-50" transform="translate(41.000000, 48.000000)"><path d="M23.4153,8.2113 C25.3633,8.4273 27.3753,8.2803 29.2473,7.7153 C30.8973,8.1853 34.9723,8.9513 34.9723,8.9513 C34.9583,10.4323 33.1063,13.1833 32.0773,14.2463 C31.1463,15.2073 29.9133,15.8213 28.6533,16.2713 C26.3103,17.1063 23.7433,17.4243 21.3113,16.9003 C18.8773,16.3773 16.5963,14.9603 15.2743,12.8513 C14.8433,12.1623 13.5373,11.1493 13.5723,10.3383 C13.5723,10.3383 19.1383,8.2323 20.7893,7.4603 C21.9303,7.8193 22.2253,8.0803 23.4153,8.2113" id="Fill-1" fill="#60c2ea"/><path d="M91.9241,4.685 C91.9221,4.685 91.9211,4.684 91.9201,4.684 C91.8871,4.673 91.8681,4.636 91.8791,4.603 C92.3751,3.096 92.3751,0.809 92.3741,0.787 C92.3751,0.75 92.4031,0.721974892 92.4391,0.721974892 C92.4741,0.721 92.5031,0.75 92.5041,0.786 C92.5041,0.809 92.5041,3.117 92.0011,4.643 C91.9901,4.675 91.9561,4.694 91.9241,4.685" id="Fill-7" fill="#60c2ea"/><path d="M11.1720888,24.1966386 L12.1531534,26.2578001 C15.3748192,35.7768348 19.5748016,45.2437228 23.9295925,53.9018818 C30.9225402,56.007871 37.9832739,57.8942957 45.0971371,59.5483481 C47.3047614,60.0606652 50.3084129,60.043283 52.3493204,60.797121 C54.1236641,61.4512402 55.220148,63.1116965 54.2106866,64.8197251 C53.0720654,66.7427439 49.418035,66.3484427 47.6262868,66.4216309 C41.7701282,66.6585775 35.8965651,66.3063595 30.090788,65.5296502 C26.283781,65.0283113 22.5463922,64.3440021 18.9280868,63.5425917 C17.0007666,63.114441 15.3400102,61.8912839 14.3681059,60.173192 C12.1174284,56.1945008 10.1543832,52.3475483 8.47897036,48.8061564 C4.35135411,40.0629162 1.70729314,34.4077588 0.995540408,32.052015 C-0.469186262,27.1895768 2.16205033,17.3462272 7.78279008,16.4945 C7.78279008,16.4945 8.34706251,23.1308361 11.1720888,24.1966386 Z" id="Fill-19" fill="#60c2ea"/><g id="Group-23" transform="translate(50.000000, 57.610900)"><mask id="uppercheers-3-mask-4" fill="#ffffff"><use xlink:href="#uppercheers-3-path-3" fill="#ffffff"/></mask><g id="Clip-22"/><path d="M11.621,9.66690635 C10.223,10.0499063 6.175,9.10290635 4.953,9.08490635 C3.736,9.06390635 -2.94875235e-13,7.65190635 -2.94875235e-13,7.65190635 L0.146,3.83990635 C0.146,3.83990635 0.442,3.01890635 3.131,2.16490635 C5.816,1.30690635 10.368,-0.0910936527 10.831,0.553906347 C11.276,1.17890635 8.455,2.97590635 7.843,3.33690635 L7.784,3.36990635 C7.748,3.38990635 7.763,3.40490635 7.821,3.42590635 C8.493,3.62190635 15.05,3.64590635 15.183,4.45190635 C15.22,4.69690635 15.065,5.19090635 14.792,5.77690635 C14.772,5.81690635 14.754,5.85690635 14.73,5.89890635 C14.523,6.32990635 14.257,6.80390635 13.961,7.26590635 C13.937,7.30890635 13.912,7.34690635 13.882,7.38790635 C13.583,7.84490635 13.253,8.28890635 12.925,8.66290635 C12.888,8.70090635 12.855,8.73690635 12.822,8.77390635 C12.401,9.23490635 11.981,9.57090635 11.621,9.66690635" id="Fill-21" fill="#60c2ea" mask="url(#uppercheers-3-mask-4)"/></g><path d="M54.6229,63.3237063 C54.6219,63.3227063 54.6219,63.3217063 54.6209,63.3207063 C54.6049,63.2887063 54.6189,63.2497063 54.6509,63.2337063 C56.0789,62.5437063 57.7229,60.9537063 57.7389,60.9367063 C57.7649,60.9127063 57.8059,60.9137063 57.8299,60.9387063 C57.8539,60.9637063 57.8539,61.0047063 57.8289,61.0297063 C57.8119,61.0467063 56.1529,62.6507063 54.7069,63.3497063 C54.6769,63.3657063 54.6399,63.3527063 54.6229,63.3237063" id="Fill-24" fill="#60c2ea"/><path d="M64.7303,63.5102063 L58.5753,62.7882063 C58.5533,62.7822063 58.5373,62.7742063 58.5273,62.7562063 C58.5193,62.7422063 58.5193,62.7312063 58.5203,62.7122063 C58.5253,62.6802063 58.5543,62.6572063 58.5913,62.6602063 L64.7923,63.3882063 C64.7723,63.4282063 64.7533,63.4682063 64.7303,63.5102063" id="Fill-26" fill="#60c2ea"/><path d="M63.8817,64.9985063 L58.5637,64.2305063 C58.5447,64.2295063 58.5257,64.2165063 58.5157,64.1985063 C58.5107,64.1895063 58.5077,64.1745063 58.5067,64.1625063 C58.5147,64.1225063 58.5427,64.1005063 58.5797,64.1025063 L63.9607,64.8765063 C63.9377,64.9195063 63.9117,64.9575063 63.8817,64.9985063" id="Fill-28" fill="#60c2ea"/><path d="M62.8221,66.3852063 L58.1451,65.7182063 C58.1251,65.7122063 58.1051,65.6992063 58.0971,65.6862063 C58.0911,65.6722063 58.0871,65.6562063 58.0911,65.6432063 C58.0961,65.6102063 58.1281,65.5812063 58.1621,65.5912063 L62.9251,66.2742063 C62.8871,66.3122063 62.8551,66.3482063 62.8221,66.3852063" id="Fill-30" fill="#60c2ea"/><path d="M97.9934,9.0951 C97.9864,9.2821 97.8314,9.4271 97.6444,9.4201 C97.4594,9.4141 97.3134,9.2581 97.3204,9.0731 C97.3264,8.8871 97.4824,8.7411 97.6684,8.7471 C97.8534,8.7541 97.9994,8.9091 97.9934,9.0951" id="Fill-48" fill="#f9fdfe"/></g><path d="M42.7937,87.7632 C41.7217,87.6392 40.0687,70.8422 41.6587,67.1112 C42.6167,64.8622 43.7417,62.6162 45.5197,60.9372 C47.2967,59.2592 49.8557,58.2312 52.2247,58.8342 C54.9817,63.2062 56.4617,68.2002 58.0917,73.0612 C58.8867,75.4302 61.2667,81.9382 61.2667,81.9382 C58.7727,85.6592 43.3627,82.6442 43.3627,82.6442 L42.7937,87.7632 Z" id="Fill-27" fill="#c53c6e"/></g></g></g></g><g id="Desk" transform="translate(80.000000, 127.000000)"><g id="Plant" transform="translate(7.663800, 4.876300)"><path d="M1.53222829,25.034 C1.43122829,23.843 1.32922829,22.1403392 1.26522829,20.9463392 C1.16022829,18.9603392 1.07722829,16.9713392 1.00022829,14.9833392 C0.972228287,14.2813392 1.20222829,14.0463392 1.90422829,13.9253392 C2.75022829,13.7773392 3.60722829,13.7133392 4.46222829,13.6583392 C4.99422829,13.6233392 5.52022829,13.5133392 6.05322829,13.4963392 C6.21322829,13.4913392 6.75722829,13.4923392 6.88322829,13.6103392 C6.94422829,13.6683392 6.90722829,14.1593392 6.87022829,14.1603392 C5.69422829,14.1913392 4.51322829,14.0813392 3.34522829,14.2983392 C3.12022829,14.3403392 2.78122829,14.3303392 2.74522829,14.5563392 C2.69522829,14.8653392 3.08522829,14.7893392 3.26622829,14.9083392 C3.31622829,14.9403392 3.39022829,14.9363392 3.45322829,14.9473392 C5.11222829,15.2223392 6.77222829,15.4943392 8.46322829,15.3303392 C9.67422829,15.2123392 10.8782283,15.0523392 12.0662283,14.7883392 C12.2632283,14.7453392 12.5522283,14.6863392 12.5322283,14.4273392 C12.5062283,14.0993392 12.1882283,14.1663392 11.9672283,14.1653392 C10.5302283,14.1583392 9.09322829,14.1633392 7.65622829,14.1633392 C7.54722829,14.0033392 7.55822829,13.8323392 7.61122829,13.6573392 C8.46022829,13.3413392 9.31022829,13.6773392 10.1582283,13.6533392 C10.9032283,13.6993392 11.6482283,13.7523392 12.3942283,13.7863392 C14.8992283,13.9013392 13.3012283,24.192 13.2322283,25 L1.53222829,25.034 Z" id="Fill-185" fill="#f780ab"/><path d="M6.87032829,14.1603392 C6.94132829,14.3653392 6.93332829,14.5743392 6.90832829,14.7873392 C6.87632829,15.0643392 7.04232829,15.1613392 7.28732829,15.1773392 C7.55832829,15.1953392 7.67532829,15.0543392 7.67232829,14.7973392 C7.67132829,14.5863392 7.66232829,14.3753392 7.65632829,14.1643392 C9.09332829,14.1633392 10.5303283,14.1583392 11.9673283,14.1653392 C12.1883283,14.1663392 12.5063283,14.0993392 12.5323283,14.4283392 C12.5523283,14.6863392 12.2633283,14.7453392 12.0663283,14.7883392 C10.8783283,15.0523392 9.67432829,15.2123392 8.46332829,15.3303392 C6.77132829,15.4943392 5.11232829,15.2223392 3.45332829,14.9473392 C3.39032829,14.9363392 3.31632829,14.9403392 3.26632829,14.9083392 C3.08532829,14.7893392 2.69532829,14.8653392 2.74532829,14.5563392 C2.78132829,14.3303392 3.12032829,14.3403392 3.34532829,14.2983392 C4.51332829,14.0813392 5.69432829,14.1913392 6.87032829,14.1603392" id="Fill-187" fill="#812748"/><path d="M7.58862829,9.13193915 C7.28562829,9.56793915 7.05162829,10.0319392 6.92662829,10.5499392 L6.90562829,10.5759392 C6.31162829,9.98593915 6.30462829,9.24993915 6.38362829,8.48993915 C6.39962829,8.34493915 6.46462829,8.25093915 6.59762829,8.20193915 C7.32762829,7.93493915 7.63562829,7.26993915 8.01462829,6.67893915 C8.14362829,6.47793915 8.36562829,6.20893915 8.10162829,5.98893915 C7.84962829,5.77993915 7.57462829,5.95593915 7.33562829,6.11093915 C7.05662829,6.29293915 6.90262829,6.63093915 6.56362829,6.77093915 C6.44562829,5.73693915 6.50262829,5.62593915 7.31562829,5.18793915 C7.75262829,4.95193915 8.16762829,4.68693915 8.46762829,4.27693915 C8.60562829,4.08793915 8.65562829,3.88693915 8.53562829,3.67593915 C8.42062829,3.47393915 8.21662829,3.51193915 8.02362829,3.49293915 C7.66062829,3.45893915 7.43762829,3.80293915 7.06062829,3.84993915 C7.10062829,3.20493915 7.35762829,2.69793915 7.67662829,2.21293915 C7.99762829,1.72693915 8.25262829,1.20493915 8.42662829,0.651939154 C8.49562829,0.433939154 8.52362829,0.158939154 8.24462829,0.0329391544 C7.98462829,-0.0840608456 7.85962829,0.135939154 7.72162829,0.296939154 C7.29562829,0.795939154 7.11362829,1.41893915 6.86362829,2.05193915 C6.65362829,1.84993915 6.62462829,1.60893915 6.53162829,1.39793915 C6.39462829,1.08393915 6.25262829,0.771939154 6.09162829,0.469939154 C5.99662829,0.291939154 5.83862829,0.147939154 5.61962829,0.256939154 C5.42962829,0.352939154 5.45662829,0.553939154 5.51162829,0.714939154 C5.65862829,1.13893915 5.69162829,1.62393915 5.99262829,1.96893915 C6.73262829,2.81093915 6.50462829,3.68093915 6.13062829,4.69793915 C5.87462829,4.19393915 5.64462829,3.78893915 5.30462829,3.46393915 C5.14562829,3.31193915 4.96362829,3.25193915 4.77862829,3.32093915 C4.55562829,3.40493915 4.55362829,3.64993915 4.60362829,3.82193915 C4.71762829,4.22093915 4.76162829,4.63193915 5.13962829,4.94593915 C5.46762829,5.21993915 5.88462829,5.51693915 5.91162829,6.00793915 C5.95862829,6.87093915 5.69662829,7.71893915 5.80562829,8.59593915 C5.52662829,8.37693915 5.35462829,8.12393915 5.12562829,7.94293915 C4.65762829,7.57193915 4.51362829,7.11993915 4.56562829,6.53393915 C4.61362829,5.98193915 4.58262829,5.41493915 4.41862829,4.87493915 C4.33262829,4.59493915 4.25262829,4.24293915 3.84762829,4.29793915 C3.43562829,4.35393915 3.37362829,4.67993915 3.40562829,5.02793915 C3.45262829,5.52393915 3.51062829,6.01793915 3.56762829,6.54893915 C2.97862829,6.36593915 2.76362829,6.08393915 2.81562829,5.48493915 C2.86562829,4.89993915 2.74862829,4.28793915 2.45662829,3.74093915 C2.34262829,3.52993915 2.17962829,3.40293915 1.93762829,3.44993915 C1.68962829,3.49893915 1.69862829,3.72193915 1.67462829,3.91093915 C1.59562829,4.52093915 1.66162829,5.15293915 1.74162829,5.75993915 C1.36462829,5.87893915 0.161628287,5.22993915 0.0096282875,5.92393915 C-0.0493717125,6.19793915 0.174628287,6.29493915 0.358628287,6.39593915 C0.774628287,6.62293915 1.23162829,6.54993915 1.67862829,6.56193915 C2.00862829,6.56993915 2.38162829,6.68293915 2.49562829,6.95293915 C2.62162829,7.25393915 2.21362829,7.28993915 2.01462829,7.41993915 C1.85062829,7.52693915 1.68462829,7.65293915 1.75062829,7.88093915 C1.80362829,8.06793915 1.97362829,8.12593915 2.15262829,8.14593915 C2.64362829,8.19893915 3.13562829,8.24893915 3.61262829,8.07293915 C3.93262829,7.95593915 4.19662829,8.02093915 4.42262829,8.26893915 C5.42162829,9.35693915 6.15262829,10.5889392 6.47862829,12.0419392 C6.43162829,12.0949392 6.38362829,12.1479392 6.33762829,12.1999392 C5.82662829,11.9209392 5.53062829,11.3739392 5.00162829,11.1219392 C4.73362829,10.9949392 4.40862829,10.8269392 4.17762829,11.1079392 C3.93962829,11.3989392 4.25562829,11.6269392 4.42262829,11.8179392 C5.01162829,12.4859392 5.77462829,12.9089392 6.58062829,13.2599392 C7.07862829,13.4309392 6.82662829,13.8429392 6.87062829,14.1599392 C6.94162829,14.3649392 6.93362829,14.5739392 6.90862829,14.7869392 C6.87662829,15.0649392 7.04262829,15.1609392 7.28662829,15.1769392 C7.55862829,15.1949392 7.67462829,15.0539392 7.67262829,14.7969392 C7.67162829,14.5859392 7.66262829,14.3749392 7.65662829,14.1629392 C7.54662829,14.0029392 7.55762829,13.8319392 7.61162829,13.6569392 C7.67062829,13.4649392 7.50262829,13.0469392 7.46962829,12.8469392 C7.41862829,12.5379392 7.37362829,12.2249392 7.39562829,11.9119392 C7.44162829,11.2679392 7.83862829,10.7339392 8.15362829,10.1909392 C8.29362829,9.94793915 8.63862829,9.36193915 8.52162829,9.06893915 C8.34662829,8.63193915 7.78062829,8.85693915 7.58862829,9.13193915" id="Fill-189" fill="#f4508c"/><path d="M5.54472829,20.7618392 C5.54372829,20.7258392 5.17972829,20.4538392 5.13172829,20.3718392 C5.04872829,20.2278392 5.01472829,20.0688392 5.03272829,19.9038392 C5.08272829,19.4548392 5.35272829,19.2708392 5.74372829,19.1508392 C6.23772829,18.9998392 6.08972829,18.2828392 6.60172829,18.0638392 C7.02272829,17.8828392 7.50172829,18.1088392 7.78772829,18.4258392 C8.14872829,18.4868392 8.53472829,18.1978392 8.90472829,18.4488392 C9.12272829,18.5968392 9.25072829,18.8008392 9.29572829,19.0688392 C9.33772829,19.3178392 9.19272829,19.5438392 9.24172829,19.7958392 C9.29972829,19.9138392 9.41472829,19.9908392 9.50872829,20.0848392 C10.0027283,20.5858392 9.74972829,21.4288392 9.08572829,21.5208392 C9.03772829,21.5278392 8.99072829,21.5348392 8.97672829,21.5368392 C8.67572829,21.5828392 8.55672829,22.2628392 8.32272829,22.4388392 C8.17472829,22.5498392 8.00872829,22.6458392 7.82572829,22.6708392 C7.36572829,22.7348392 7.29172829,22.3248392 6.95972829,22.1558392 C6.81672829,22.1968392 6.65672829,22.2448392 6.49472829,22.2898392 C6.05772829,22.4088392 5.76872829,22.2568392 5.60872829,21.8338392 C5.51772829,21.5928392 5.43472829,21.3608392 5.54572829,21.0968392 C5.58472829,21.0048392 5.54672829,20.8818392 5.54472829,20.7618392" id="Fill-191" fill="#95d6f1"/><path d="M7.93192829,20.5187392 C7.93192829,20.8137392 7.69292829,21.0527392 7.39792829,21.0527392 C7.10192829,21.0527392 6.86292829,20.8137392 6.86292829,20.5187392 C6.86292829,20.2227392 7.10192829,19.9837392 7.39792829,19.9837392 C7.69292829,19.9837392 7.93192829,20.2227392 7.93192829,20.5187392" id="Fill-193" fill="#e4f5fc"/></g><path d="M99.2537,29.4717 L49.3767,29.4717 C49.2647,29.4717 49.1747,29.3817 49.1747,29.2707 C49.1747,27.7217 50.4297,26.4667 51.9787,26.4667 L99.2537,26.4667 C99.3647,26.4667 99.4547,26.5567 99.4547,26.6677 L99.4547,29.2707 C99.4547,29.3817 99.3647,29.4717 99.2537,29.4717" id="Fill-167" fill="#d54177"/><path d="M115.9065,1.9122 L109.6805,28.2422 C109.5145,28.9442 108.8885,29.4392 108.1675,29.4392 L69.8175,29.4392 C68.8135,29.4392 68.0735,28.5032 68.3035,27.5262 L74.5295,1.1972 C74.6955,0.4952 75.3215,0.0002 76.0425,0.0002 L114.3925,0.0002 C115.3965,0.0002 116.1375,0.9362 115.9065,1.9122" id="Fill-169" fill="#6c213c"/><path d="M108.7293,26.7852 L74.4293,26.7852 C74.2733,26.7852 74.1473,26.6602 74.1473,26.5052 C74.1473,26.3492 74.2733,26.2232 74.4293,26.2232 L108.7293,26.2232 C108.8843,26.2232 109.0103,26.3492 109.0103,26.5052 C109.0103,26.6602 108.8843,26.7852 108.7293,26.7852" id="Fill-171" fill="#f780ab"/><path d="M90.5154,14.9864 C90.5564,16.9344 93.8584,19.3754 93.8584,19.3754 C93.8584,19.3754 97.6924,16.9344 98.1584,14.9864 C98.6634,12.8744 96.2514,12.2254 94.4644,13.8184 C93.0254,12.2254 90.4714,12.8744 90.5154,14.9864" id="Fill-173" fill="#f780ab"/><path d="M77.5623,-7.10542736e-14 L70.9343,29.439 L69.8173,29.439 C68.8133,29.439 68.0733,28.503 68.3043,27.526 L74.5293,1.197 C74.6953,0.495 75.3213,-7.10542736e-14 76.0423,-7.10542736e-14 L77.5623,-7.10542736e-14 Z" id="Fill-175" fill="#d54177"/><path d="M112.8665,31.5567 L112.8665,33.5827 C112.8665,34.7487 112.1615,35.6937 111.2925,35.6937 L1.7835,35.6937 C0.9145,35.6937 0.2105,34.7487 0.2105,33.5827 L0.2105,31.5567 C0.2105,30.3907 0.9145,29.4467 1.7835,29.4467 L111.2925,29.4467 C112.1615,29.4467 112.8665,30.3907 112.8665,31.5567" id="Fill-177" fill="#faafca"/><path d="M105.1775,40.9024 L11.0365,40.9024 C8.1465,40.9024 5.8035,38.5594 5.8035,35.6704 L110.4105,35.6704 C110.4105,38.5594 108.0675,40.9024 105.1775,40.9024" id="Fill-179" fill="#f886af"/><polygon id="Fill-181" fill="#faafca" points="6.259 114.7969 24.082 40.9019 17.822 40.9019 1.66977543e-13 114.7969"/><polygon id="Fill-183" fill="#faafca" points="111.4675 114.7969 93.6455 40.9019 99.9045 40.9019 117.7265 114.7969"/></g></g></svg>