<?xml version="1.0" standalone="no"?>
<svg xmlns:xlink="http://www.w3.org/1999/xlink" id="wave" style="transform:rotate(0deg); transition: 0.3s" viewBox="0 0 1440 280" version="1.1" xmlns="http://www.w3.org/2000/svg"><defs><linearGradient id="sw-gradient-0" x1="0" x2="0" y1="1" y2="0"><stop stop-color="rgba(62, 181, 230, 1)" offset="0%"/><stop stop-color="rgba(242, 46, 118, 1)" offset="100%"/></linearGradient></defs><path style="transform:translate(0, 0px); opacity:1" fill="url(#sw-gradient-0)" d="M0,168L60,177.3C120,187,240,205,360,219.3C480,233,600,243,720,210C840,177,960,103,1080,60.7C1200,19,1320,9,1440,18.7C1560,28,1680,56,1800,93.3C1920,131,2040,177,2160,186.7C2280,196,2400,168,2520,154C2640,140,2760,140,2880,149.3C3000,159,3120,177,3240,177.3C3360,177,3480,159,3600,140C3720,121,3840,103,3960,112C4080,121,4200,159,4320,168C4440,177,4560,159,4680,140C4800,121,4920,103,5040,93.3C5160,84,5280,84,5400,102.7C5520,121,5640,159,5760,186.7C5880,215,6000,233,6120,228.7C6240,224,6360,196,6480,196C6600,196,6720,224,6840,219.3C6960,215,7080,177,7200,168C7320,159,7440,177,7560,186.7C7680,196,7800,196,7920,191.3C8040,187,8160,177,8280,144.7C8400,112,8520,56,8580,28L8640,0L8640,280L8580,280C8520,280,8400,280,8280,280C8160,280,8040,280,7920,280C7800,280,7680,280,7560,280C7440,280,7320,280,7200,280C7080,280,6960,280,6840,280C6720,280,6600,280,6480,280C6360,280,6240,280,6120,280C6000,280,5880,280,5760,280C5640,280,5520,280,5400,280C5280,280,5160,280,5040,280C4920,280,4800,280,4680,280C4560,280,4440,280,4320,280C4200,280,4080,280,3960,280C3840,280,3720,280,3600,280C3480,280,3360,280,3240,280C3120,280,3000,280,2880,280C2760,280,2640,280,2520,280C2400,280,2280,280,2160,280C2040,280,1920,280,1800,280C1680,280,1560,280,1440,280C1320,280,1200,280,1080,280C960,280,840,280,720,280C600,280,480,280,360,280C240,280,120,280,60,280L0,280Z"/></svg>